<svg xmlns="http://www.w3.org/2000/svg" xmlns:xlink="http://www.w3.org/1999/xlink" width="48" zoomAndPan="magnify" viewBox="0 0 36 36.000001" height="48" preserveAspectRatio="xMidYMid meet" version="1.0"><defs><g/><clipPath id="3394247f3d"><path d="M 1.089844 30 L 34.660156 30 L 34.660156 35 L 1.089844 35 Z M 1.089844 30 " clip-rule="nonzero"/></clipPath><clipPath id="e756c87dc4"><path d="M 1.089844 29 L 34.660156 29 L 34.660156 35.027344 L 1.089844 35.027344 Z M 1.089844 29 " clip-rule="nonzero"/></clipPath></defs><path fill="#ffffff" d="M 20.320312 9.601562 L 20.320312 0.921875 C 20.320312 0.609375 20.066406 0.355469 19.753906 0.355469 L 14.09375 0.355469 C 13.78125 0.355469 13.53125 0.609375 13.53125 0.921875 L 13.53125 29.71875 C 13.53125 30.03125 13.78125 30.28125 14.09375 30.28125 L 19.753906 30.28125 C 20.066406 30.28125 20.320312 30.03125 20.320312 29.71875 L 20.320312 12.195312 " fill-opacity="1" fill-rule="nonzero"/><path fill="#b87d11" d="M 19.753906 30.628906 L 14.09375 30.628906 C 13.59375 30.628906 13.183594 30.222656 13.183594 29.71875 L 13.183594 0.921875 C 13.183594 0.417969 13.59375 0.0117188 14.09375 0.0117188 L 19.753906 0.0117188 C 20.257812 0.0117188 20.664062 0.417969 20.664062 0.921875 L 20.664062 9.601562 C 20.664062 9.792969 20.511719 9.949219 20.320312 9.949219 C 20.128906 9.949219 19.972656 9.792969 19.972656 9.601562 L 19.972656 0.921875 C 19.972656 0.800781 19.875 0.703125 19.753906 0.703125 L 14.09375 0.703125 C 13.972656 0.703125 13.875 0.800781 13.875 0.921875 L 13.875 29.71875 C 13.875 29.839844 13.972656 29.9375 14.09375 29.9375 L 19.753906 29.9375 C 19.875 29.9375 19.972656 29.839844 19.972656 29.71875 L 19.972656 12.195312 C 19.972656 12.003906 20.128906 11.851562 20.320312 11.851562 C 20.511719 11.851562 20.664062 12.003906 20.664062 12.195312 L 20.664062 29.71875 C 20.664062 30.222656 20.257812 30.628906 19.753906 30.628906 Z M 19.753906 30.628906 " fill-opacity="1" fill-rule="nonzero"/><path fill="#b87d11" d="M 20.320312 6 L 13.53125 6 C 13.339844 6 13.183594 5.84375 13.183594 5.652344 L 13.183594 2.664062 C 13.183594 2.472656 13.339844 2.320312 13.53125 2.320312 L 20.320312 2.320312 C 20.511719 2.320312 20.664062 2.472656 20.664062 2.664062 L 20.664062 5.652344 C 20.664062 5.84375 20.511719 6 20.320312 6 Z M 13.875 5.308594 L 19.972656 5.308594 L 19.972656 3.011719 L 13.875 3.011719 Z M 13.875 5.308594 " fill-opacity="1" fill-rule="nonzero"/><path fill="#b87d11" d="M 20.320312 28.628906 L 13.53125 28.628906 C 13.339844 28.628906 13.183594 28.476562 13.183594 28.285156 L 13.183594 27.15625 C 13.183594 26.964844 13.339844 26.8125 13.53125 26.8125 L 20.320312 26.8125 C 20.511719 26.8125 20.664062 26.964844 20.664062 27.15625 L 20.664062 28.285156 C 20.664062 28.476562 20.511719 28.628906 20.320312 28.628906 Z M 13.875 27.9375 L 19.972656 27.9375 L 19.972656 27.503906 L 13.875 27.503906 Z M 13.875 27.9375 " fill-opacity="1" fill-rule="nonzero"/><path fill="#ffffff" d="M 19.082031 23.515625 C 19.082031 23.804688 19.027344 24.078125 18.917969 24.34375 C 18.808594 24.605469 18.652344 24.839844 18.449219 25.042969 C 18.246094 25.246094 18.015625 25.398438 17.75 25.507812 C 17.484375 25.617188 17.210938 25.671875 16.925781 25.671875 C 16.636719 25.671875 16.363281 25.617188 16.097656 25.507812 C 15.835938 25.398438 15.601562 25.246094 15.398438 25.042969 C 15.199219 24.839844 15.042969 24.605469 14.933594 24.34375 C 14.824219 24.078125 14.769531 23.804688 14.769531 23.515625 C 14.769531 23.230469 14.824219 22.957031 14.933594 22.691406 C 15.042969 22.425781 15.199219 22.195312 15.398438 21.992188 C 15.601562 21.789062 15.835938 21.632812 16.097656 21.523438 C 16.363281 21.414062 16.636719 21.359375 16.925781 21.359375 C 17.210938 21.359375 17.484375 21.414062 17.75 21.523438 C 18.015625 21.632812 18.246094 21.789062 18.449219 21.992188 C 18.652344 22.195312 18.808594 22.425781 18.917969 22.691406 C 19.027344 22.957031 19.082031 23.230469 19.082031 23.515625 Z M 19.082031 23.515625 " fill-opacity="1" fill-rule="nonzero"/><path fill="#b87d11" d="M 16.925781 26.019531 C 15.542969 26.019531 14.421875 24.898438 14.421875 23.515625 C 14.421875 22.136719 15.542969 21.015625 16.925781 21.015625 C 18.304688 21.015625 19.425781 22.136719 19.425781 23.515625 C 19.425781 24.898438 18.304688 26.019531 16.925781 26.019531 Z M 16.925781 21.707031 C 15.925781 21.707031 15.113281 22.519531 15.113281 23.515625 C 15.113281 24.515625 15.925781 25.328125 16.925781 25.328125 C 17.921875 25.328125 18.734375 24.515625 18.734375 23.515625 C 18.734375 22.519531 17.921875 21.707031 16.925781 21.707031 Z M 16.925781 21.707031 " fill-opacity="1" fill-rule="nonzero"/><path fill="#ffffff" d="M 11.914062 9.566406 L 11.914062 0.921875 C 11.914062 0.609375 11.660156 0.355469 11.347656 0.355469 L 5.6875 0.355469 C 5.375 0.355469 5.125 0.609375 5.125 0.921875 L 5.125 29.71875 C 5.125 30.03125 5.375 30.28125 5.6875 30.28125 L 11.347656 30.28125 C 11.660156 30.28125 11.914062 30.03125 11.914062 29.71875 L 11.914062 12.335938 " fill-opacity="1" fill-rule="nonzero"/><path fill="#b87d11" d="M 11.347656 30.628906 L 5.6875 30.628906 C 5.1875 30.628906 4.777344 30.222656 4.777344 29.71875 L 4.777344 0.921875 C 4.777344 0.417969 5.1875 0.0117188 5.6875 0.0117188 L 11.347656 0.0117188 C 11.851562 0.0117188 12.257812 0.417969 12.257812 0.921875 L 12.257812 9.566406 C 12.257812 9.757812 12.105469 9.914062 11.914062 9.914062 C 11.722656 9.914062 11.566406 9.757812 11.566406 9.566406 L 11.566406 0.921875 C 11.566406 0.800781 11.46875 0.703125 11.347656 0.703125 L 5.6875 0.703125 C 5.566406 0.703125 5.46875 0.800781 5.46875 0.921875 L 5.46875 29.71875 C 5.46875 29.839844 5.566406 29.9375 5.6875 29.9375 L 11.347656 29.9375 C 11.46875 29.9375 11.566406 29.839844 11.566406 29.71875 L 11.566406 12.335938 C 11.566406 12.144531 11.722656 11.988281 11.914062 11.988281 C 12.105469 11.988281 12.257812 12.144531 12.257812 12.335938 L 12.257812 29.71875 C 12.257812 30.222656 11.851562 30.628906 11.347656 30.628906 Z M 11.347656 30.628906 " fill-opacity="1" fill-rule="nonzero"/><path fill="#b87d11" d="M 11.914062 6 L 5.125 6 C 4.933594 6 4.777344 5.84375 4.777344 5.652344 L 4.777344 2.664062 C 4.777344 2.472656 4.933594 2.320312 5.125 2.320312 L 11.914062 2.320312 C 12.105469 2.320312 12.257812 2.472656 12.257812 2.664062 L 12.257812 5.652344 C 12.257812 5.84375 12.105469 6 11.914062 6 Z M 5.46875 5.308594 L 11.566406 5.308594 L 11.566406 3.011719 L 5.46875 3.011719 Z M 5.46875 5.308594 " fill-opacity="1" fill-rule="nonzero"/><path fill="#b87d11" d="M 11.914062 28.628906 L 5.125 28.628906 C 4.933594 28.628906 4.777344 28.476562 4.777344 28.285156 L 4.777344 27.15625 C 4.777344 26.964844 4.933594 26.8125 5.125 26.8125 L 11.914062 26.8125 C 12.105469 26.8125 12.257812 26.964844 12.257812 27.15625 L 12.257812 28.285156 C 12.257812 28.476562 12.105469 28.628906 11.914062 28.628906 Z M 5.46875 27.9375 L 11.566406 27.9375 L 11.566406 27.503906 L 5.46875 27.503906 Z M 5.46875 27.9375 " fill-opacity="1" fill-rule="nonzero"/><path fill="#ffffff" d="M 10.675781 23.515625 C 10.675781 23.804688 10.621094 24.078125 10.511719 24.34375 C 10.402344 24.605469 10.246094 24.839844 10.042969 25.042969 C 9.839844 25.246094 9.609375 25.398438 9.34375 25.507812 C 9.078125 25.617188 8.804688 25.671875 8.519531 25.671875 C 8.234375 25.671875 7.957031 25.617188 7.691406 25.507812 C 7.429688 25.398438 7.195312 25.246094 6.992188 25.042969 C 6.792969 24.839844 6.636719 24.605469 6.527344 24.34375 C 6.417969 24.078125 6.363281 23.804688 6.363281 23.515625 C 6.363281 23.230469 6.417969 22.957031 6.527344 22.691406 C 6.636719 22.425781 6.792969 22.195312 6.992188 21.992188 C 7.195312 21.789062 7.429688 21.632812 7.691406 21.523438 C 7.957031 21.414062 8.234375 21.359375 8.519531 21.359375 C 8.804688 21.359375 9.078125 21.414062 9.34375 21.523438 C 9.609375 21.632812 9.839844 21.789062 10.042969 21.992188 C 10.246094 22.195312 10.402344 22.425781 10.511719 22.691406 C 10.621094 22.957031 10.675781 23.230469 10.675781 23.515625 Z M 10.675781 23.515625 " fill-opacity="1" fill-rule="nonzero"/><path fill="#b87d11" d="M 8.519531 26.019531 C 7.136719 26.019531 6.015625 24.898438 6.015625 23.515625 C 6.015625 22.136719 7.136719 21.015625 8.519531 21.015625 C 9.898438 21.015625 11.019531 22.136719 11.019531 23.515625 C 11.019531 24.898438 9.898438 26.019531 8.519531 26.019531 Z M 8.519531 21.707031 C 7.519531 21.707031 6.707031 22.519531 6.707031 23.515625 C 6.707031 24.515625 7.519531 25.328125 8.519531 25.328125 C 9.515625 25.328125 10.328125 24.515625 10.328125 23.515625 C 10.328125 22.519531 9.515625 21.707031 8.519531 21.707031 Z M 8.519531 21.707031 " fill-opacity="1" fill-rule="nonzero"/><path fill="#ffffff" d="M 27.6875 8.046875 L 26.636719 2.53125 C 26.582031 2.25 26.3125 2.070312 26.035156 2.121094 L 20.945312 3.09375 C 20.664062 3.144531 20.480469 3.414062 20.535156 3.695312 L 25.46875 29.589844 C 25.523438 29.871094 25.792969 30.050781 26.074219 30 L 31.164062 29.027344 C 31.445312 28.976562 31.628906 28.707031 31.574219 28.425781 L 28.261719 11.054688 " fill-opacity="1" fill-rule="nonzero"/><path fill="#b87d11" d="M 25.976562 30.355469 C 25.804688 30.355469 25.636719 30.304688 25.492188 30.207031 C 25.300781 30.078125 25.171875 29.878906 25.128906 29.65625 L 20.191406 3.761719 C 20.105469 3.292969 20.410156 2.839844 20.878906 2.753906 L 25.96875 1.78125 C 26.195312 1.738281 26.425781 1.785156 26.613281 1.914062 C 26.804688 2.042969 26.933594 2.242188 26.976562 2.46875 L 28.027344 7.984375 C 28.0625 8.171875 27.941406 8.351562 27.753906 8.386719 C 27.566406 8.425781 27.386719 8.300781 27.347656 8.113281 L 26.296875 2.597656 C 26.285156 2.535156 26.246094 2.503906 26.226562 2.488281 C 26.203125 2.472656 26.160156 2.449219 26.097656 2.460938 L 21.007812 3.433594 C 20.917969 3.449219 20.855469 3.539062 20.871094 3.632812 L 25.808594 29.523438 C 25.820312 29.585938 25.859375 29.617188 25.882812 29.632812 C 25.902344 29.648438 25.949219 29.671875 26.007812 29.660156 L 31.097656 28.6875 C 31.160156 28.675781 31.191406 28.640625 31.207031 28.617188 C 31.222656 28.597656 31.246094 28.550781 31.234375 28.492188 L 27.921875 11.121094 C 27.886719 10.929688 28.007812 10.75 28.195312 10.714844 C 28.382812 10.679688 28.566406 10.800781 28.601562 10.988281 L 31.914062 28.359375 C 31.957031 28.585938 31.910156 28.816406 31.78125 29.007812 C 31.648438 29.195312 31.453125 29.324219 31.226562 29.367188 L 26.136719 30.339844 C 26.085938 30.347656 26.03125 30.355469 25.976562 30.355469 Z M 25.976562 30.355469 " fill-opacity="1" fill-rule="nonzero"/><g clip-path="url(#3394247f3d)"><path fill="#ffffff" d="M 34.542969 33.929688 C 34.542969 34.335938 34.242188 34.671875 33.871094 34.671875 L 2.105469 34.671875 C 1.734375 34.671875 1.433594 34.335938 1.433594 33.929688 L 1.433594 31.023438 C 1.433594 30.617188 1.734375 30.28125 2.105469 30.28125 L 33.871094 30.28125 C 34.242188 30.28125 34.542969 30.617188 34.542969 31.023438 Z M 34.542969 33.929688 " fill-opacity="1" fill-rule="nonzero"/></g><g clip-path="url(#e756c87dc4)"><path fill="#b87d11" d="M 33.871094 35.015625 L 2.105469 35.015625 C 1.542969 35.015625 1.085938 34.527344 1.085938 33.929688 L 1.085938 31.023438 C 1.085938 30.425781 1.542969 29.9375 2.105469 29.9375 L 33.871094 29.9375 C 34.433594 29.9375 34.890625 30.425781 34.890625 31.023438 L 34.890625 33.929688 C 34.890625 34.527344 34.433594 35.015625 33.871094 35.015625 Z M 2.105469 30.628906 C 1.929688 30.628906 1.777344 30.808594 1.777344 31.023438 L 1.777344 33.929688 C 1.777344 34.144531 1.929688 34.324219 2.105469 34.324219 L 33.871094 34.324219 C 34.046875 34.324219 34.195312 34.144531 34.195312 33.929688 L 34.195312 31.023438 C 34.195312 30.808594 34.046875 30.628906 33.871094 30.628906 Z M 2.105469 30.628906 " fill-opacity="1" fill-rule="nonzero"/></g><path fill="#ffffff" d="M 21.03125 6.304688 L 27.132812 5.140625 " fill-opacity="1" fill-rule="nonzero"/><path fill="#b87d11" d="M 21.03125 6.652344 C 20.867188 6.652344 20.722656 6.535156 20.691406 6.371094 C 20.65625 6.179688 20.777344 6 20.964844 5.964844 L 27.070312 4.800781 C 27.257812 4.765625 27.4375 4.886719 27.472656 5.074219 C 27.511719 5.261719 27.386719 5.445312 27.199219 5.480469 L 21.09375 6.644531 C 21.074219 6.648438 21.050781 6.652344 21.03125 6.652344 Z M 21.03125 6.652344 " fill-opacity="1" fill-rule="nonzero"/><path fill="#ffffff" d="M 21.277344 7.605469 L 27.382812 6.441406 " fill-opacity="1" fill-rule="nonzero"/><path fill="#b87d11" d="M 21.277344 7.953125 C 21.117188 7.953125 20.96875 7.835938 20.9375 7.671875 C 20.902344 7.484375 21.027344 7.300781 21.214844 7.265625 L 27.316406 6.101562 C 27.503906 6.066406 27.6875 6.191406 27.722656 6.378906 C 27.757812 6.566406 27.636719 6.746094 27.449219 6.78125 L 21.34375 7.945312 C 21.320312 7.949219 21.300781 7.953125 21.277344 7.953125 Z M 21.277344 7.953125 " fill-opacity="1" fill-rule="nonzero"/><path fill="#ffffff" d="M 24.835938 26.253906 L 30.9375 25.089844 " fill-opacity="1" fill-rule="nonzero"/><path fill="#b87d11" d="M 24.835938 26.601562 C 24.671875 26.601562 24.527344 26.484375 24.496094 26.320312 C 24.457031 26.132812 24.582031 25.953125 24.769531 25.914062 L 30.875 24.75 C 31.058594 24.714844 31.242188 24.839844 31.277344 25.027344 C 31.3125 25.214844 31.191406 25.394531 31.003906 25.429688 L 24.898438 26.59375 C 24.878906 26.601562 24.855469 26.601562 24.835938 26.601562 Z M 24.835938 26.601562 " fill-opacity="1" fill-rule="nonzero"/><path fill="#ffffff" d="M 25.082031 27.558594 L 31.1875 26.394531 " fill-opacity="1" fill-rule="nonzero"/><path fill="#b87d11" d="M 25.082031 27.902344 C 24.917969 27.902344 24.773438 27.789062 24.742188 27.621094 C 24.707031 27.433594 24.832031 27.253906 25.019531 27.21875 L 31.121094 26.054688 C 31.308594 26.019531 31.492188 26.140625 31.527344 26.328125 C 31.5625 26.515625 31.4375 26.699219 31.25 26.734375 L 25.148438 27.898438 C 25.125 27.902344 25.105469 27.902344 25.082031 27.902344 Z M 25.082031 27.902344 " fill-opacity="1" fill-rule="nonzero"/><g fill="#b87d11" fill-opacity="1"><g transform="translate(5.497299, 14.740549)"><g><path d="M 2.84375 0.8125 C 2.789062 0.78125 2.726562 0.734375 2.65625 0.671875 C 2.570312 0.597656 2.503906 0.535156 2.453125 0.484375 C 2.242188 0.253906 2.109375 0 2.046875 -0.28125 C 1.984375 -0.5625 1.972656 -0.945312 2.015625 -1.4375 C 2.023438 -1.601562 2.039062 -1.800781 2.0625 -2.03125 C 2.09375 -2.25 2.128906 -2.488281 2.171875 -2.75 C 2.242188 -3.238281 2.332031 -3.742188 2.4375 -4.265625 C 2.53125 -4.785156 2.625 -5.226562 2.71875 -5.59375 L 2.78125 -5.828125 C 2.789062 -5.898438 2.789062 -5.9375 2.78125 -5.9375 C 2.769531 -5.945312 2.65625 -5.921875 2.4375 -5.859375 C 2.226562 -5.796875 1.988281 -5.71875 1.71875 -5.625 C 1.582031 -5.570312 1.441406 -5.523438 1.296875 -5.484375 C 1.160156 -5.429688 1.039062 -5.382812 0.9375 -5.34375 C 0.769531 -5.28125 0.625 -5.226562 0.5 -5.1875 C 0.363281 -5.144531 0.28125 -5.125 0.25 -5.125 C 0.175781 -5.125 0.0703125 -5.179688 -0.0625 -5.296875 C -0.175781 -5.390625 -0.234375 -5.460938 -0.234375 -5.515625 C -0.234375 -5.523438 -0.234375 -5.53125 -0.234375 -5.53125 C -0.222656 -5.539062 -0.148438 -5.570312 -0.015625 -5.625 C 0.128906 -5.6875 0.296875 -5.75 0.484375 -5.8125 C 1.265625 -6.113281 2.035156 -6.351562 2.796875 -6.53125 C 3.566406 -6.71875 4.328125 -6.851562 5.078125 -6.9375 C 5.210938 -6.957031 5.332031 -6.96875 5.4375 -6.96875 C 5.53125 -6.976562 5.613281 -6.988281 5.6875 -7 L 5.8125 -7 C 5.914062 -7 5.988281 -6.988281 6.03125 -6.96875 C 6.101562 -6.945312 6.179688 -6.90625 6.265625 -6.84375 C 6.410156 -6.726562 6.484375 -6.648438 6.484375 -6.609375 C 6.484375 -6.566406 6.40625 -6.546875 6.25 -6.546875 C 6.113281 -6.546875 5.910156 -6.53125 5.640625 -6.5 C 5.359375 -6.46875 5.070312 -6.429688 4.78125 -6.390625 C 4.613281 -6.359375 4.457031 -6.332031 4.3125 -6.3125 C 4.15625 -6.28125 4.007812 -6.25 3.875 -6.21875 C 3.8125 -6.207031 3.707031 -6.1875 3.5625 -6.15625 L 3.4375 -5.6875 C 3.351562 -5.414062 3.273438 -5.117188 3.203125 -4.796875 C 3.140625 -4.484375 3.070312 -4.15625 3 -3.8125 C 2.875 -3.195312 2.773438 -2.601562 2.703125 -2.03125 C 2.617188 -1.4375 2.578125 -0.976562 2.578125 -0.65625 C 2.578125 -0.28125 2.597656 -0.0078125 2.640625 0.15625 C 2.679688 0.320312 2.773438 0.488281 2.921875 0.65625 C 3.035156 0.78125 3.082031 0.859375 3.0625 0.890625 C 3.0625 0.898438 3.054688 0.90625 3.046875 0.90625 C 3.003906 0.90625 2.9375 0.875 2.84375 0.8125 Z M 2.84375 0.8125 "/></g></g></g><g fill="#b87d11" fill-opacity="1"><g transform="translate(13.840542, 14.010819)"><g><path d="M 1.234375 0.046875 C 1.117188 -0.0351562 1.039062 -0.101562 1 -0.15625 C 0.957031 -0.195312 0.9375 -0.316406 0.9375 -0.515625 L 0.9375 -1.34375 C 0.9375 -1.425781 0.9375 -1.5 0.9375 -1.5625 C 0.9375 -1.71875 0.945312 -1.847656 0.96875 -1.953125 C 0.976562 -2.046875 1.003906 -2.164062 1.046875 -2.3125 C 1.117188 -2.59375 1.207031 -2.867188 1.3125 -3.140625 C 1.414062 -3.410156 1.5625 -3.734375 1.75 -4.109375 C 1.84375 -4.296875 1.921875 -4.4375 1.984375 -4.53125 C 2.035156 -4.632812 2.078125 -4.6875 2.109375 -4.6875 C 2.140625 -4.6875 2.210938 -4.644531 2.328125 -4.5625 C 2.453125 -4.488281 2.535156 -4.425781 2.578125 -4.375 C 2.597656 -4.34375 2.59375 -4.28125 2.5625 -4.1875 C 2.519531 -4.09375 2.425781 -3.898438 2.28125 -3.609375 C 2.1875 -3.421875 2.109375 -3.257812 2.046875 -3.125 C 1.984375 -2.976562 1.957031 -2.898438 1.96875 -2.890625 C 1.988281 -2.878906 2.085938 -2.925781 2.265625 -3.03125 C 2.453125 -3.144531 2.65625 -3.285156 2.875 -3.453125 C 3.332031 -3.796875 3.691406 -4.15625 3.953125 -4.53125 C 4.210938 -4.90625 4.34375 -5.253906 4.34375 -5.578125 C 4.34375 -5.671875 4.335938 -5.734375 4.328125 -5.765625 C 4.316406 -5.796875 4.296875 -5.820312 4.265625 -5.84375 C 4.203125 -5.863281 4.082031 -5.851562 3.90625 -5.8125 C 3.71875 -5.769531 3.539062 -5.710938 3.375 -5.640625 C 2.925781 -5.453125 2.503906 -5.164062 2.109375 -4.78125 C 1.703125 -4.394531 1.347656 -3.941406 1.046875 -3.421875 C 0.898438 -3.160156 0.8125 -3.003906 0.78125 -2.953125 C 0.738281 -2.898438 0.707031 -2.875 0.6875 -2.875 C 0.644531 -2.875 0.554688 -2.921875 0.421875 -3.015625 C 0.296875 -3.109375 0.222656 -3.175781 0.203125 -3.21875 C 0.191406 -3.226562 0.1875 -3.238281 0.1875 -3.25 C 0.1875 -3.28125 0.203125 -3.328125 0.234375 -3.390625 C 0.273438 -3.460938 0.351562 -3.601562 0.46875 -3.8125 C 0.550781 -3.957031 0.640625 -4.101562 0.734375 -4.25 C 0.835938 -4.40625 0.914062 -4.519531 0.96875 -4.59375 C 1.132812 -4.800781 1.316406 -5.003906 1.515625 -5.203125 C 1.703125 -5.378906 1.898438 -5.539062 2.109375 -5.6875 C 2.492188 -5.945312 2.875 -6.128906 3.25 -6.234375 C 3.414062 -6.285156 3.570312 -6.3125 3.71875 -6.3125 C 3.882812 -6.3125 4.035156 -6.273438 4.171875 -6.203125 C 4.335938 -6.117188 4.472656 -6.03125 4.578125 -5.9375 C 4.691406 -5.832031 4.769531 -5.722656 4.8125 -5.609375 C 4.863281 -5.515625 4.894531 -5.4375 4.90625 -5.375 C 4.925781 -5.320312 4.925781 -5.226562 4.90625 -5.09375 C 4.894531 -4.875 4.820312 -4.640625 4.6875 -4.390625 C 4.5625 -4.148438 4.378906 -3.894531 4.140625 -3.625 C 4.085938 -3.582031 4.007812 -3.503906 3.90625 -3.390625 L 4.28125 -3.390625 C 4.613281 -3.390625 4.910156 -3.335938 5.171875 -3.234375 C 5.421875 -3.148438 5.664062 -3 5.90625 -2.78125 C 6.0625 -2.644531 6.171875 -2.519531 6.234375 -2.40625 C 6.296875 -2.28125 6.328125 -2.132812 6.328125 -1.96875 C 6.328125 -1.789062 6.285156 -1.625 6.203125 -1.46875 C 6.128906 -1.3125 6.007812 -1.148438 5.84375 -0.984375 C 5.539062 -0.703125 5.160156 -0.472656 4.703125 -0.296875 C 4.253906 -0.117188 3.769531 -0.0234375 3.25 -0.015625 C 2.882812 0.00390625 2.609375 -0.0078125 2.421875 -0.0625 C 2.234375 -0.101562 2.046875 -0.203125 1.859375 -0.359375 C 1.722656 -0.460938 1.628906 -0.554688 1.578125 -0.640625 C 1.535156 -0.722656 1.53125 -0.804688 1.5625 -0.890625 C 1.570312 -0.972656 1.617188 -1.050781 1.703125 -1.125 C 1.785156 -1.195312 1.890625 -1.269531 2.015625 -1.34375 C 2.242188 -1.457031 2.539062 -1.550781 2.90625 -1.625 C 3.28125 -1.707031 3.671875 -1.75 4.078125 -1.75 L 4.453125 -1.75 C 4.503906 -1.71875 4.578125 -1.660156 4.671875 -1.578125 C 4.734375 -1.535156 4.78125 -1.492188 4.8125 -1.453125 C 4.851562 -1.410156 4.875 -1.382812 4.875 -1.375 C 4.875 -1.351562 4.820312 -1.332031 4.71875 -1.3125 C 4.625 -1.300781 4.441406 -1.285156 4.171875 -1.265625 C 3.898438 -1.253906 3.644531 -1.226562 3.40625 -1.1875 C 3.164062 -1.144531 2.945312 -1.078125 2.75 -0.984375 C 2.601562 -0.929688 2.460938 -0.851562 2.328125 -0.75 C 2.191406 -0.632812 2.125 -0.554688 2.125 -0.515625 C 2.125 -0.472656 2.210938 -0.445312 2.390625 -0.4375 C 2.578125 -0.425781 2.769531 -0.4375 2.96875 -0.46875 C 3.4375 -0.507812 3.863281 -0.613281 4.25 -0.78125 C 4.644531 -0.9375 4.976562 -1.140625 5.25 -1.390625 C 5.414062 -1.546875 5.535156 -1.703125 5.609375 -1.859375 C 5.691406 -2.003906 5.734375 -2.160156 5.734375 -2.328125 C 5.742188 -2.492188 5.722656 -2.613281 5.671875 -2.6875 C 5.628906 -2.757812 5.539062 -2.816406 5.40625 -2.859375 C 5.269531 -2.898438 5.050781 -2.921875 4.75 -2.921875 C 4.445312 -2.921875 4.1875 -2.898438 3.96875 -2.859375 C 3.75 -2.816406 3.484375 -2.738281 3.171875 -2.625 C 2.867188 -2.53125 2.585938 -2.421875 2.328125 -2.296875 C 2.148438 -2.210938 2.03125 -2.160156 1.96875 -2.140625 C 1.90625 -2.117188 1.851562 -2.117188 1.8125 -2.140625 C 1.757812 -2.160156 1.71875 -2.15625 1.6875 -2.125 C 1.664062 -2.082031 1.632812 -1.960938 1.59375 -1.765625 C 1.5625 -1.640625 1.539062 -1.5 1.53125 -1.34375 C 1.519531 -1.175781 1.515625 -0.9375 1.515625 -0.625 C 1.515625 -0.351562 1.507812 -0.15625 1.5 -0.03125 C 1.5 0.101562 1.488281 0.171875 1.46875 0.171875 C 1.457031 0.171875 1.429688 0.160156 1.390625 0.140625 C 1.335938 0.109375 1.285156 0.078125 1.234375 0.046875 Z M 1.234375 0.046875 "/></g></g></g><g fill="#b87d11" fill-opacity="1"><g transform="translate(23.334979, 14.979664)"><g><path d="M 2.9375 -7.109375 C 3.25 -6.992188 3.484375 -6.835938 3.640625 -6.640625 C 3.816406 -6.472656 3.945312 -6.226562 4.03125 -5.90625 L 4.0625 -5.765625 C 4.144531 -5.367188 4.140625 -4.96875 4.046875 -4.5625 C 3.929688 -4.09375 3.707031 -3.648438 3.375 -3.234375 C 3.195312 -3.015625 3.023438 -2.820312 2.859375 -2.65625 C 2.671875 -2.488281 2.460938 -2.332031 2.234375 -2.1875 C 2.097656 -2.113281 1.957031 -2.035156 1.8125 -1.953125 C 1.65625 -1.867188 1.484375 -1.785156 1.296875 -1.703125 C 1.234375 -1.671875 1.21875 -1.644531 1.25 -1.625 C 1.257812 -1.601562 1.34375 -1.550781 1.5 -1.46875 C 1.914062 -1.226562 2.296875 -1.128906 2.640625 -1.171875 C 2.960938 -1.210938 3.203125 -1.378906 3.359375 -1.671875 C 3.390625 -1.710938 3.414062 -1.769531 3.4375 -1.84375 C 3.476562 -1.925781 3.5 -2.003906 3.5 -2.078125 C 3.507812 -2.148438 3.523438 -2.207031 3.546875 -2.25 C 3.554688 -2.300781 3.566406 -2.332031 3.578125 -2.34375 C 3.597656 -2.34375 3.648438 -2.328125 3.734375 -2.296875 C 3.816406 -2.273438 3.894531 -2.238281 3.96875 -2.1875 C 4.082031 -2.132812 4.148438 -2.078125 4.171875 -2.015625 C 4.191406 -1.960938 4.171875 -1.84375 4.109375 -1.65625 C 4.023438 -1.3125 3.84375 -1.078125 3.5625 -0.953125 C 3.289062 -0.816406 2.945312 -0.789062 2.53125 -0.875 C 2.414062 -0.894531 2.234375 -0.953125 1.984375 -1.046875 C 1.710938 -1.148438 1.507812 -1.238281 1.375 -1.3125 C 1.3125 -1.34375 1.257812 -1.375 1.21875 -1.40625 C 1.164062 -1.425781 1.132812 -1.4375 1.125 -1.4375 C 1.113281 -1.425781 1.117188 -1.363281 1.140625 -1.25 C 1.171875 -1.144531 1.203125 -1.015625 1.234375 -0.859375 C 1.328125 -0.453125 1.425781 -0.125 1.53125 0.125 C 1.65625 0.375 1.800781 0.570312 1.96875 0.71875 C 2.050781 0.789062 2.085938 0.847656 2.078125 0.890625 C 2.085938 0.898438 2.078125 0.910156 2.046875 0.921875 C 2.023438 0.921875 1.992188 0.914062 1.953125 0.90625 C 1.847656 0.875 1.734375 0.828125 1.609375 0.765625 C 1.492188 0.703125 1.390625 0.625 1.296875 0.53125 C 1.117188 0.320312 0.976562 0.0976562 0.875 -0.140625 C 0.757812 -0.367188 0.660156 -0.695312 0.578125 -1.125 C 0.523438 -1.34375 0.484375 -1.492188 0.453125 -1.578125 C 0.421875 -1.671875 0.382812 -1.738281 0.34375 -1.78125 C 0.3125 -1.8125 0.289062 -1.84375 0.28125 -1.875 C 0.269531 -1.882812 0.269531 -1.898438 0.28125 -1.921875 C 0.332031 -1.953125 0.367188 -2.007812 0.390625 -2.09375 C 0.410156 -2.15625 0.410156 -2.289062 0.390625 -2.5 C 0.367188 -2.8125 0.363281 -3.175781 0.375 -3.59375 C 0.394531 -4 0.429688 -4.445312 0.484375 -4.9375 C 0.503906 -5.164062 0.515625 -5.367188 0.515625 -5.546875 C 0.535156 -5.710938 0.539062 -5.796875 0.53125 -5.796875 C 0.519531 -5.804688 0.472656 -5.757812 0.390625 -5.65625 C 0.316406 -5.550781 0.238281 -5.429688 0.15625 -5.296875 C 0.0820312 -5.203125 0.0195312 -5.113281 -0.03125 -5.03125 C -0.0820312 -4.9375 -0.125 -4.851562 -0.15625 -4.78125 C -0.21875 -4.6875 -0.265625 -4.59375 -0.296875 -4.5 C -0.335938 -4.40625 -0.359375 -4.351562 -0.359375 -4.34375 C -0.367188 -4.289062 -0.472656 -4.289062 -0.671875 -4.34375 C -0.878906 -4.40625 -0.992188 -4.476562 -1.015625 -4.5625 C -1.023438 -4.613281 -0.976562 -4.742188 -0.875 -4.953125 C -0.78125 -5.171875 -0.671875 -5.367188 -0.546875 -5.546875 C -0.367188 -5.816406 -0.148438 -6.066406 0.109375 -6.296875 C 0.335938 -6.515625 0.601562 -6.710938 0.90625 -6.890625 C 1.039062 -6.972656 1.160156 -7.03125 1.265625 -7.0625 C 1.367188 -7.101562 1.523438 -7.144531 1.734375 -7.1875 L 1.765625 -7.203125 C 2.023438 -7.253906 2.222656 -7.28125 2.359375 -7.28125 C 2.515625 -7.269531 2.707031 -7.210938 2.9375 -7.109375 Z M 1.015625 -6.234375 C 0.941406 -6.171875 0.828125 -6.078125 0.671875 -5.953125 C 0.734375 -5.929688 0.8125 -5.90625 0.90625 -5.875 C 0.976562 -5.84375 1.039062 -5.8125 1.09375 -5.78125 C 1.144531 -5.75 1.175781 -5.722656 1.1875 -5.703125 C 1.195312 -5.671875 1.207031 -5.613281 1.21875 -5.53125 C 1.207031 -5.4375 1.195312 -5.34375 1.1875 -5.25 C 1.15625 -4.882812 1.125 -4.488281 1.09375 -4.0625 C 1.0625 -3.644531 1.039062 -3.273438 1.03125 -2.953125 C 1.03125 -2.773438 1.03125 -2.625 1.03125 -2.5 C 1.03125 -2.382812 1.03125 -2.304688 1.03125 -2.265625 C 1.050781 -2.210938 1.097656 -2.207031 1.171875 -2.25 C 1.265625 -2.28125 1.425781 -2.375 1.65625 -2.53125 C 2.195312 -2.90625 2.632812 -3.347656 2.96875 -3.859375 C 3.289062 -4.378906 3.460938 -4.90625 3.484375 -5.4375 C 3.503906 -5.65625 3.472656 -5.890625 3.390625 -6.140625 C 3.304688 -6.390625 3.210938 -6.585938 3.109375 -6.734375 C 3.035156 -6.816406 2.984375 -6.875 2.953125 -6.90625 C 2.910156 -6.925781 2.847656 -6.9375 2.765625 -6.9375 C 2.710938 -6.9375 2.648438 -6.9375 2.578125 -6.9375 C 2.503906 -6.925781 2.429688 -6.914062 2.359375 -6.90625 C 2.160156 -6.851562 1.941406 -6.769531 1.703125 -6.65625 C 1.460938 -6.539062 1.234375 -6.398438 1.015625 -6.234375 Z M 1.015625 -6.234375 "/></g></g></g></svg>