<svg xmlns="http://www.w3.org/2000/svg" xmlns:xlink="http://www.w3.org/1999/xlink" width="200" zoomAndPan="magnify" viewBox="0 0 150 74.999997" height="100" preserveAspectRatio="xMidYMid meet" version="1.0"><defs><g/><clipPath id="fe0dfc1548"><path d="M 9 0.824219 L 51 0.824219 L 51 2 L 9 2 Z M 9 0.824219 " clip-rule="nonzero"/></clipPath><clipPath id="374a8cc945"><path d="M 5 0.824219 L 10 0.824219 L 10 2 L 5 2 Z M 5 0.824219 " clip-rule="nonzero"/></clipPath><clipPath id="45bd5ca1a2"><path d="M 9 0.824219 L 11 0.824219 L 11 16 L 9 16 Z M 9 0.824219 " clip-rule="nonzero"/></clipPath><clipPath id="0cac41270b"><path d="M 0.480469 53 L 3 53 L 3 66 L 0.480469 66 Z M 0.480469 53 " clip-rule="nonzero"/></clipPath><clipPath id="ecc79fc660"><path d="M 1 65 L 32 65 L 32 68.175781 L 1 68.175781 Z M 1 65 " clip-rule="nonzero"/></clipPath><clipPath id="6a42ba22f7"><path d="M 30 64 L 58 64 L 58 68.175781 L 30 68.175781 Z M 30 64 " clip-rule="nonzero"/></clipPath><clipPath id="0838fc2476"><path d="M 30 65 L 32 65 L 32 68.175781 L 30 68.175781 Z M 30 65 " clip-rule="nonzero"/></clipPath><clipPath id="3f01a74825"><path d="M 30 55 L 58.464844 55 L 58.464844 59 L 30 59 Z M 30 55 " clip-rule="nonzero"/></clipPath><clipPath id="8a93eea16b"><path d="M 30 53 L 58.464844 53 L 58.464844 57 L 30 57 Z M 30 53 " clip-rule="nonzero"/></clipPath><clipPath id="ef86534787"><path d="M 57 53 L 58.464844 53 L 58.464844 56 L 57 56 Z M 57 53 " clip-rule="nonzero"/></clipPath><clipPath id="9c3af8c4eb"><path d="M 55 52 L 58.464844 52 L 58.464844 55 L 55 55 Z M 55 52 " clip-rule="nonzero"/></clipPath><clipPath id="7884d65b38"><path d="M 78 46 L 137.761719 46 L 137.761719 66 L 78 66 Z M 78 46 " clip-rule="nonzero"/></clipPath><clipPath id="bd3812770d"><rect x="0" width="138" y="0" height="69"/></clipPath></defs><g transform="matrix(1, 0, 0, 1, 0.000000000000000056, 3)"><g clip-path="url(#bd3812770d)"><path fill="#b87d11" d="M 17.21875 18.773438 C 17.25 18.636719 17.386719 18.550781 17.523438 18.585938 C 17.65625 18.617188 17.742188 18.75 17.710938 18.886719 C 17.6875 18.976562 17.667969 19.070312 17.648438 19.164062 C 17.171875 21.425781 16.886719 25.394531 17.546875 28.019531 C 17.558594 28.066406 17.570312 28.109375 17.582031 28.15625 C 17.617188 28.289062 17.539062 28.425781 17.402344 28.464844 C 17.269531 28.5 17.132812 28.417969 17.09375 28.285156 C 17.082031 28.238281 17.070312 28.191406 17.058594 28.144531 C 16.382812 25.453125 16.667969 21.382812 17.15625 19.0625 C 17.175781 18.960938 17.199219 18.867188 17.21875 18.773438 Z M 17.21875 18.773438 " fill-opacity="1" fill-rule="evenodd"/><path fill="#b87d11" d="M 54.140625 19.402344 C 54.21875 19.285156 54.371094 19.253906 54.488281 19.328125 C 54.605469 19.40625 54.636719 19.5625 54.5625 19.679688 C 52.726562 22.472656 52.675781 25.214844 54.5 27.710938 C 54.582031 27.824219 54.558594 27.980469 54.445312 28.0625 C 54.332031 28.144531 54.175781 28.121094 54.09375 28.007812 C 52.140625 25.335938 52.175781 22.394531 54.140625 19.402344 Z M 54.140625 19.402344 " fill-opacity="1" fill-rule="evenodd"/><path fill="#b87d11" d="M 17.972656 17.675781 C 17.832031 17.671875 17.71875 17.558594 17.722656 17.417969 C 17.722656 17.28125 17.839844 17.167969 17.976562 17.171875 L 56.058594 17.667969 C 56.195312 17.671875 56.308594 17.785156 56.304688 17.925781 C 56.304688 18.0625 56.191406 18.175781 56.050781 18.171875 Z M 17.972656 17.675781 " fill-opacity="1" fill-rule="evenodd"/><path fill="#b87d11" d="M 18.226562 19.375 C 18.085938 19.375 17.972656 19.257812 17.976562 19.121094 C 17.980469 18.980469 18.09375 18.871094 18.230469 18.871094 L 56.089844 19.308594 C 56.226562 19.308594 56.339844 19.421875 56.339844 19.5625 C 56.335938 19.703125 56.222656 19.8125 56.082031 19.8125 Z M 18.226562 19.375 " fill-opacity="1" fill-rule="evenodd"/><path fill="#b87d11" d="M 17.339844 28.472656 C 17.203125 28.472656 17.089844 28.359375 17.085938 28.222656 C 17.085938 28.082031 17.199219 27.96875 17.335938 27.96875 L 55.679688 27.59375 C 55.816406 27.59375 55.929688 27.703125 55.933594 27.84375 C 55.933594 27.980469 55.820312 28.097656 55.683594 28.097656 Z M 17.339844 28.472656 " fill-opacity="1" fill-rule="evenodd"/><path fill="#b87d11" d="M 18.03125 30.273438 C 17.890625 30.277344 17.777344 30.167969 17.773438 30.027344 C 17.769531 29.890625 17.878906 29.773438 18.019531 29.769531 L 55.703125 28.960938 C 55.84375 28.957031 55.957031 29.070312 55.960938 29.207031 C 55.964844 29.347656 55.851562 29.460938 55.714844 29.464844 Z M 18.03125 30.273438 " fill-opacity="1" fill-rule="evenodd"/><path fill="#b87d11" d="M 18.003906 17.421875 C 18.007812 17.28125 18.121094 17.171875 18.261719 17.175781 C 18.398438 17.175781 18.511719 17.292969 18.507812 17.429688 L 18.480469 19.128906 C 18.476562 19.265625 18.363281 19.378906 18.222656 19.375 C 18.085938 19.371094 17.972656 19.257812 17.976562 19.117188 Z M 18.003906 17.421875 " fill-opacity="1" fill-rule="evenodd"/><path fill="#b87d11" d="M 55.800781 17.898438 C 55.796875 17.761719 55.910156 17.644531 56.046875 17.644531 C 56.1875 17.640625 56.300781 17.75 56.304688 17.890625 L 56.339844 19.554688 C 56.339844 19.695312 56.230469 19.808594 56.089844 19.8125 C 55.953125 19.8125 55.835938 19.703125 55.835938 19.566406 Z M 55.800781 17.898438 " fill-opacity="1" fill-rule="evenodd"/><path fill="#b87d11" d="M 55.429688 27.851562 C 55.425781 27.710938 55.535156 27.597656 55.675781 27.59375 C 55.8125 27.589844 55.929688 27.703125 55.933594 27.839844 L 55.960938 29.207031 C 55.964844 29.347656 55.851562 29.460938 55.714844 29.464844 C 55.574219 29.46875 55.460938 29.355469 55.457031 29.21875 Z M 55.429688 27.851562 " fill-opacity="1" fill-rule="evenodd"/><path fill="#b87d11" d="M 50.03125 14.710938 C 49.914062 14.640625 49.871094 14.484375 49.941406 14.367188 C 50.011719 14.246094 50.164062 14.203125 50.285156 14.273438 L 56.179688 17.675781 C 56.300781 17.746094 56.339844 17.898438 56.269531 18.019531 C 56.203125 18.140625 56.046875 18.179688 55.925781 18.113281 Z M 50.03125 14.710938 " fill-opacity="1" fill-rule="evenodd"/><path fill="#b87d11" d="M 6.175781 14.722656 C 6.042969 14.6875 5.957031 14.550781 5.992188 14.417969 C 6.027344 14.28125 6.164062 14.199219 6.296875 14.234375 L 18.316406 17.25 C 18.453125 17.28125 18.535156 17.417969 18.5 17.554688 C 18.464844 17.6875 18.328125 17.769531 18.195312 17.738281 Z M 6.175781 14.722656 " fill-opacity="1" fill-rule="evenodd"/><path fill="#b87d11" d="M 5.8125 15.960938 C 5.679688 15.921875 5.597656 15.785156 5.632812 15.652344 C 5.671875 15.515625 5.808594 15.4375 5.941406 15.472656 L 18.296875 18.792969 C 18.429688 18.828125 18.507812 18.964844 18.472656 19.101562 C 18.4375 19.234375 18.296875 19.3125 18.164062 19.277344 Z M 5.8125 15.960938 " fill-opacity="1" fill-rule="evenodd"/><path fill="#b87d11" d="M 5.402344 25.882812 C 5.265625 25.855469 5.179688 25.71875 5.210938 25.585938 C 5.242188 25.449219 5.375 25.363281 5.511719 25.390625 L 17.394531 27.972656 C 17.527344 28.003906 17.613281 28.136719 17.585938 28.273438 C 17.554688 28.410156 17.421875 28.496094 17.285156 28.464844 Z M 5.402344 25.882812 " fill-opacity="1" fill-rule="evenodd"/><path fill="#b87d11" d="M 17.820312 28.207031 C 17.824219 28.070312 17.9375 27.957031 18.078125 27.960938 C 18.21875 27.964844 18.328125 28.078125 18.324219 28.21875 L 18.292969 30.03125 C 18.292969 30.171875 18.175781 30.28125 18.039062 30.277344 C 17.898438 30.277344 17.789062 30.160156 17.789062 30.023438 Z M 17.820312 28.207031 " fill-opacity="1" fill-rule="evenodd"/><path fill="#b87d11" d="M 5.710938 27.285156 C 5.574219 27.25 5.492188 27.117188 5.527344 26.980469 C 5.558594 26.84375 5.695312 26.761719 5.828125 26.796875 L 18.085938 29.777344 C 18.21875 29.8125 18.304688 29.945312 18.269531 30.082031 C 18.234375 30.21875 18.101562 30.300781 17.964844 30.265625 Z M 5.710938 27.285156 " fill-opacity="1" fill-rule="evenodd"/><path fill="#b87d11" d="M 5.996094 14.402344 C 6.039062 14.269531 6.179688 14.195312 6.3125 14.238281 C 6.445312 14.28125 6.519531 14.421875 6.476562 14.554688 C 6.347656 14.964844 6.226562 15.371094 6.121094 15.78125 C 5.242188 19.097656 5.09375 22.367188 5.703125 25.589844 C 5.792969 26.054688 5.894531 26.515625 6.011719 26.976562 C 6.050781 27.113281 5.96875 27.25 5.832031 27.285156 C 5.699219 27.320312 5.5625 27.238281 5.527344 27.101562 C 5.402344 26.632812 5.300781 26.160156 5.210938 25.683594 C 4.585938 22.386719 4.738281 19.042969 5.632812 15.652344 C 5.742188 15.234375 5.867188 14.820312 5.996094 14.402344 Z M 5.996094 14.402344 " fill-opacity="1" fill-rule="evenodd"/><g clip-path="url(#fe0dfc1548)"><path fill="#b87d11" d="M 9.6875 1.4375 C 9.546875 1.4375 9.4375 1.324219 9.4375 1.1875 C 9.4375 1.046875 9.550781 0.933594 9.691406 0.9375 L 50.625 1.152344 C 50.761719 1.15625 50.875 1.269531 50.875 1.40625 C 50.875 1.546875 50.761719 1.660156 50.621094 1.65625 Z M 9.6875 1.4375 " fill-opacity="1" fill-rule="evenodd"/></g><path fill="#b87d11" d="M 9.46875 15.023438 C 9.328125 15.027344 9.21875 14.914062 9.214844 14.773438 C 9.214844 14.636719 9.328125 14.523438 9.464844 14.523438 L 50.21875 14.238281 C 50.359375 14.238281 50.472656 14.351562 50.472656 14.488281 C 50.476562 14.628906 50.363281 14.742188 50.222656 14.742188 Z M 9.46875 15.023438 " fill-opacity="1" fill-rule="evenodd"/><g clip-path="url(#374a8cc945)"><path fill="#b87d11" d="M 5.628906 1.933594 C 5.492188 1.953125 5.363281 1.855469 5.34375 1.71875 C 5.324219 1.582031 5.421875 1.453125 5.558594 1.433594 L 9.640625 0.84375 C 9.78125 0.824219 9.90625 0.917969 9.925781 1.058594 C 9.945312 1.195312 9.851562 1.320312 9.714844 1.34375 Z M 5.628906 1.933594 " fill-opacity="1" fill-rule="evenodd"/></g><path fill="#b87d11" d="M 5.621094 3.152344 C 5.484375 3.167969 5.359375 3.066406 5.34375 2.929688 C 5.328125 2.789062 5.429688 2.667969 5.566406 2.652344 L 9.773438 2.1875 C 9.914062 2.171875 10.039062 2.269531 10.054688 2.410156 C 10.070312 2.546875 9.96875 2.671875 9.828125 2.6875 Z M 5.621094 3.152344 " fill-opacity="1" fill-rule="evenodd"/><path fill="#b87d11" d="M 5.339844 1.683594 C 5.339844 1.542969 5.457031 1.429688 5.59375 1.429688 C 5.734375 1.429688 5.84375 1.542969 5.84375 1.683594 L 5.84375 2.902344 C 5.84375 3.039062 5.734375 3.152344 5.59375 3.152344 C 5.457031 3.152344 5.339844 3.039062 5.339844 2.902344 Z M 5.339844 1.683594 " fill-opacity="1" fill-rule="evenodd"/><path fill="#b87d11" d="M 5.160156 12.121094 C 5.160156 11.984375 5.273438 11.871094 5.410156 11.871094 C 5.550781 11.871094 5.664062 11.980469 5.664062 12.121094 L 5.667969 13.109375 C 5.671875 13.25 5.558594 13.363281 5.417969 13.363281 C 5.28125 13.363281 5.167969 13.25 5.167969 13.113281 Z M 5.160156 12.121094 " fill-opacity="1" fill-rule="evenodd"/><path fill="#b87d11" d="M 9.683594 13.523438 C 9.8125 13.574219 9.878906 13.722656 9.828125 13.851562 C 9.777344 13.980469 9.628906 14.042969 9.5 13.992188 L 5.320312 12.355469 C 5.191406 12.304688 5.128906 12.160156 5.179688 12.03125 C 5.230469 11.902344 5.375 11.835938 5.503906 11.886719 Z M 9.683594 13.523438 " fill-opacity="1" fill-rule="evenodd"/><path fill="#b87d11" d="M 6.253906 2.828125 C 6.238281 2.691406 6.339844 2.566406 6.476562 2.550781 C 6.613281 2.535156 6.738281 2.632812 6.753906 2.773438 C 7.09375 5.804688 7.105469 8.867188 6.777344 12.082031 C 6.761719 12.242188 6.742188 12.402344 6.726562 12.566406 C 6.710938 12.703125 6.585938 12.804688 6.445312 12.789062 C 6.308594 12.773438 6.210938 12.648438 6.226562 12.507812 C 6.242188 12.347656 6.257812 12.1875 6.277344 12.027344 C 6.597656 8.851562 6.589844 5.824219 6.253906 2.828125 Z M 6.253906 2.828125 " fill-opacity="1" fill-rule="evenodd"/><path fill="#b87d11" d="M 5.324219 13.34375 C 5.195312 13.292969 5.132812 13.144531 5.1875 13.015625 C 5.238281 12.886719 5.386719 12.824219 5.511719 12.878906 L 9.5625 14.539062 C 9.691406 14.59375 9.753906 14.742188 9.699219 14.867188 C 9.648438 14.996094 9.5 15.058594 9.371094 15.007812 Z M 5.324219 13.34375 " fill-opacity="1" fill-rule="evenodd"/><path fill="#b87d11" d="M 5.425781 12.371094 C 5.289062 12.382812 5.171875 12.277344 5.160156 12.136719 C 5.152344 12 5.257812 11.878906 5.398438 11.871094 L 6.511719 11.804688 C 6.652344 11.796875 6.769531 11.902344 6.777344 12.039062 C 6.785156 12.179688 6.679688 12.296875 6.542969 12.304688 Z M 5.425781 12.371094 " fill-opacity="1" fill-rule="evenodd"/><g clip-path="url(#45bd5ca1a2)"><path fill="#b87d11" d="M 9.21875 14.753906 L 9.214844 14.753906 L 9.21875 14.746094 C 9.21875 14.746094 9.21875 14.742188 9.21875 14.742188 C 9.21875 14.738281 9.21875 14.738281 9.21875 14.738281 C 9.261719 14.402344 9.304688 14.066406 9.34375 13.730469 C 9.785156 9.882812 9.847656 6.128906 9.550781 2.457031 C 9.519531 2.042969 9.480469 1.625 9.4375 1.214844 C 9.433594 1.183594 9.429688 1.152344 9.429688 1.117188 C 9.414062 0.980469 9.511719 0.855469 9.652344 0.84375 C 9.789062 0.828125 9.914062 0.929688 9.929688 1.066406 C 9.929688 1.097656 9.933594 1.128906 9.9375 1.160156 C 9.980469 1.578125 10.019531 1.996094 10.054688 2.417969 C 10.351562 6.121094 10.289062 9.910156 9.84375 13.789062 C 9.804688 14.125 9.761719 14.464844 9.71875 14.804688 L 9.636719 14.796875 L 9.230469 14.738281 L 9.632812 14.792969 L 9.25 14.753906 C 9.351562 14.839844 9.679688 15.070312 9.71875 14.804688 C 9.699219 14.945312 9.574219 15.042969 9.433594 15.023438 C 9.300781 15.003906 9.203125 14.886719 9.21875 14.753906 Z M 9.71875 14.804688 L 9.632812 14.792969 L 9.636719 14.796875 Z M 9.21875 14.730469 Z M 9.21875 14.730469 " fill-opacity="1" fill-rule="evenodd"/></g><path fill="#b87d11" d="M 50.386719 1.484375 C 50.339844 1.351562 50.414062 1.210938 50.542969 1.167969 C 50.675781 1.125 50.816406 1.195312 50.863281 1.328125 C 50.964844 1.628906 51 1.910156 51.046875 2.210938 C 51.644531 5.972656 51.648438 10.964844 50.460938 14.570312 C 50.457031 14.578125 50.453125 14.589844 50.449219 14.601562 C 50.40625 14.734375 50.265625 14.804688 50.132812 14.761719 C 50 14.714844 49.929688 14.574219 49.972656 14.441406 L 49.984375 14.410156 C 51.148438 10.875 51.136719 5.980469 50.550781 2.289062 C 50.507812 2.015625 50.476562 1.761719 50.386719 1.484375 Z M 50.386719 1.484375 " fill-opacity="1" fill-rule="evenodd"/><path fill="#b87d11" d="M 13.269531 30.25 C 13.128906 30.265625 13.007812 30.164062 12.992188 30.023438 C 12.980469 29.886719 13.082031 29.765625 13.21875 29.75 L 16.546875 29.417969 C 16.683594 29.402344 16.808594 29.503906 16.820312 29.644531 C 16.835938 29.78125 16.734375 29.90625 16.59375 29.917969 Z M 13.269531 30.25 " fill-opacity="1" fill-rule="evenodd"/><path fill="#b87d11" d="M 3.683594 28.105469 C 3.542969 28.121094 3.421875 28.019531 3.40625 27.878906 C 3.394531 27.742188 3.496094 27.617188 3.632812 27.605469 L 7.554688 27.230469 C 7.695312 27.21875 7.816406 27.320312 7.832031 27.457031 C 7.84375 27.59375 7.742188 27.71875 7.605469 27.730469 Z M 3.683594 28.105469 " fill-opacity="1" fill-rule="evenodd"/><path fill="#b87d11" d="M 3.601562 28.101562 C 3.46875 28.070312 3.382812 27.9375 3.414062 27.800781 C 3.441406 27.664062 3.578125 27.582031 3.710938 27.609375 L 13.300781 29.753906 C 13.433594 29.785156 13.519531 29.917969 13.488281 30.054688 C 13.460938 30.191406 13.324219 30.277344 13.1875 30.246094 Z M 3.601562 28.101562 " fill-opacity="1" fill-rule="evenodd"/><path fill="#b87d11" d="M 3.628906 29.628906 C 3.496094 29.601562 3.40625 29.464844 3.4375 29.332031 C 3.46875 29.195312 3.601562 29.109375 3.738281 29.136719 L 13.632812 31.292969 C 13.765625 31.324219 13.851562 31.457031 13.824219 31.59375 C 13.792969 31.730469 13.660156 31.816406 13.523438 31.785156 Z M 3.628906 29.628906 " fill-opacity="1" fill-rule="evenodd"/><path fill="#b87d11" d="M 3.40625 27.859375 C 3.402344 27.722656 3.515625 27.605469 3.652344 27.605469 C 3.792969 27.601562 3.90625 27.714844 3.910156 27.851562 L 3.933594 29.378906 C 3.9375 29.519531 3.828125 29.632812 3.6875 29.636719 C 3.550781 29.636719 3.433594 29.527344 3.433594 29.390625 Z M 3.40625 27.859375 " fill-opacity="1" fill-rule="evenodd"/><path fill="#b87d11" d="M 3.363281 37.855469 C 3.367188 37.714844 3.484375 37.605469 3.625 37.609375 C 3.761719 37.617188 3.871094 37.734375 3.867188 37.871094 L 3.820312 39.109375 C 3.816406 39.246094 3.699219 39.355469 3.558594 39.351562 C 3.421875 39.347656 3.3125 39.230469 3.320312 39.089844 Z M 3.363281 37.855469 " fill-opacity="1" fill-rule="evenodd"/><path fill="#b87d11" d="M 3.476562 39.332031 C 3.347656 39.28125 3.285156 39.132812 3.335938 39.003906 C 3.390625 38.875 3.535156 38.816406 3.664062 38.867188 L 12.820312 42.574219 C 12.949219 42.625 13.011719 42.773438 12.957031 42.902344 C 12.90625 43.03125 12.757812 43.09375 12.628906 43.039062 Z M 3.476562 39.332031 " fill-opacity="1" fill-rule="evenodd"/><path fill="#b87d11" d="M 3.519531 38.097656 C 3.390625 38.050781 3.324219 37.90625 3.375 37.773438 C 3.421875 37.644531 3.566406 37.578125 3.699219 37.628906 L 13.289062 41.222656 C 13.417969 41.269531 13.484375 41.414062 13.433594 41.546875 C 13.386719 41.675781 13.242188 41.742188 13.109375 41.691406 Z M 3.519531 38.097656 " fill-opacity="1" fill-rule="evenodd"/><path fill="#b87d11" d="M 3.613281 38.113281 C 3.476562 38.117188 3.359375 38.007812 3.359375 37.867188 C 3.355469 37.730469 3.464844 37.613281 3.605469 37.609375 L 4.855469 37.582031 C 4.992188 37.578125 5.109375 37.691406 5.109375 37.828125 C 5.113281 37.96875 5.003906 38.082031 4.863281 38.085938 Z M 3.613281 38.113281 " fill-opacity="1" fill-rule="evenodd"/><path fill="#b87d11" d="M 12.730469 43.058594 C 12.589844 43.0625 12.476562 42.953125 12.472656 42.8125 C 12.46875 42.675781 12.578125 42.558594 12.71875 42.554688 L 54.234375 41.472656 C 54.371094 41.46875 54.488281 41.578125 54.492188 41.714844 C 54.496094 41.855469 54.386719 41.96875 54.246094 41.972656 Z M 12.730469 43.058594 " fill-opacity="1" fill-rule="evenodd"/><path fill="#b87d11" d="M 54.179688 29.359375 C 54.117188 29.238281 54.164062 29.085938 54.285156 29.019531 C 54.410156 28.953125 54.558594 29 54.625 29.121094 C 55.761719 31.261719 55.671875 35.675781 55.148438 38.945312 C 54.964844 40.085938 54.726562 41.089844 54.476562 41.804688 C 54.433594 41.9375 54.289062 42.003906 54.15625 41.960938 C 54.023438 41.914062 53.957031 41.769531 54.003906 41.640625 C 54.246094 40.945312 54.472656 39.972656 54.648438 38.867188 C 55.160156 35.699219 55.28125 31.429688 54.179688 29.359375 Z M 54.179688 29.359375 " fill-opacity="1" fill-rule="evenodd"/><path fill="#b87d11" d="M 14.191406 29.953125 C 14.152344 29.820312 14.230469 29.679688 14.363281 29.640625 C 14.496094 29.601562 14.636719 29.679688 14.675781 29.8125 C 16.015625 34.4375 15.898438 38.179688 14.582031 41.96875 C 14.480469 42.265625 14.367188 42.566406 14.25 42.867188 C 14.199219 42.996094 14.050781 43.058594 13.921875 43.007812 C 13.792969 42.957031 13.730469 42.808594 13.78125 42.679688 C 13.894531 42.386719 14.003906 42.09375 14.105469 41.804688 C 15.386719 38.109375 15.5 34.464844 14.191406 29.953125 Z M 14.191406 29.953125 " fill-opacity="1" fill-rule="evenodd"/><path fill="#b87d11" d="M 13.015625 30.128906 C 13 30.105469 12.988281 30.074219 12.984375 30.042969 C 12.957031 29.90625 13.046875 29.777344 13.183594 29.75 L 13.289062 29.75 L 13.378906 29.785156 L 13.449219 29.851562 L 13.488281 29.941406 C 13.617188 30.464844 13.726562 30.984375 13.824219 31.492188 C 14.507812 35.097656 14.410156 38.382812 13.4375 41.53125 C 13.296875 41.988281 13.136719 42.445312 12.960938 42.898438 C 12.90625 43.027344 12.761719 43.09375 12.632812 43.042969 C 12.503906 42.992188 12.4375 42.84375 12.488281 42.714844 C 12.664062 42.273438 12.820312 41.828125 12.960938 41.382812 C 13.90625 38.308594 13.996094 35.105469 13.332031 31.585938 C 13.238281 31.105469 13.132812 30.621094 13.015625 30.128906 Z M 13.238281 30.25 C 13.25 30.25 13.261719 30.246094 13.277344 30.246094 C 13.265625 30.246094 13.253906 30.25 13.238281 30.25 Z M 13.238281 30.25 " fill-opacity="1" fill-rule="evenodd"/><path fill="#b87d11" d="M 4.503906 29.660156 C 4.476562 29.523438 4.570312 29.394531 4.707031 29.371094 C 4.84375 29.34375 4.972656 29.433594 5 29.570312 C 5.511719 32.402344 5.578125 35.070312 5.109375 37.875 C 5.082031 38.03125 5.054688 38.1875 5.023438 38.347656 C 5 38.484375 4.867188 38.574219 4.730469 38.546875 C 4.59375 38.523438 4.503906 38.390625 4.53125 38.253906 C 4.558594 38.101562 4.585938 37.945312 4.609375 37.792969 C 5.070312 35.046875 5.003906 32.433594 4.503906 29.660156 Z M 4.503906 29.660156 " fill-opacity="1" fill-rule="evenodd"/><path fill="#b87d11" d="M 4.703125 39.832031 C 4.574219 39.777344 4.511719 39.632812 4.5625 39.503906 C 4.617188 39.375 4.761719 39.3125 4.894531 39.363281 L 8.890625 40.984375 C 9.019531 41.035156 9.082031 41.183594 9.03125 41.3125 C 8.980469 41.441406 8.832031 41.503906 8.703125 41.449219 Z M 4.703125 39.832031 " fill-opacity="1" fill-rule="evenodd"/><path fill="#b87d11" d="M 10 55.394531 C 9.863281 55.394531 9.746094 55.285156 9.746094 55.144531 C 9.746094 55.007812 9.855469 54.890625 9.996094 54.890625 L 55.234375 54.425781 C 55.371094 54.421875 55.488281 54.535156 55.488281 54.671875 C 55.488281 54.8125 55.378906 54.925781 55.238281 54.925781 Z M 10 55.394531 " fill-opacity="1" fill-rule="evenodd"/><path fill="#b87d11" d="M 51.660156 41.835938 C 51.632812 41.699219 51.71875 41.566406 51.851562 41.539062 C 51.988281 41.507812 52.125 41.59375 52.152344 41.730469 C 53.042969 45.878906 53.054688 50.1875 52.179688 54.65625 C 52.171875 54.691406 52.164062 54.730469 52.15625 54.765625 C 52.128906 54.902344 51.996094 54.992188 51.859375 54.964844 C 51.726562 54.9375 51.636719 54.804688 51.664062 54.667969 C 51.671875 54.632812 51.679688 54.59375 51.683594 54.558594 C 52.546875 50.160156 52.539062 45.921875 51.660156 41.835938 Z M 51.660156 41.835938 " fill-opacity="1" fill-rule="evenodd"/><path fill="#b87d11" d="M 53.648438 54.578125 C 53.648438 54.578125 53.648438 54.582031 53.648438 54.585938 C 53.648438 54.585938 53.648438 54.589844 53.644531 54.59375 C 53.644531 54.597656 53.644531 54.597656 53.644531 54.601562 C 53.644531 54.605469 53.644531 54.605469 53.640625 54.605469 L 53.640625 54.609375 C 53.636719 54.625 53.632812 54.640625 53.625 54.65625 L 53.617188 54.679688 L 53.574219 54.734375 L 53.554688 54.742188 C 53.515625 54.769531 53.472656 54.789062 53.425781 54.792969 L 53.394531 54.804688 L 53.378906 54.796875 C 53.371094 54.792969 53.359375 54.792969 53.347656 54.792969 C 53.265625 54.773438 53.199219 54.71875 53.167969 54.644531 L 53.160156 54.640625 L 53.152344 54.601562 C 53.152344 54.589844 53.148438 54.578125 53.148438 54.566406 L 53.144531 54.546875 L 53.148438 54.511719 C 53.148438 54.511719 53.148438 54.507812 53.148438 54.503906 C 53.152344 54.503906 53.152344 54.5 53.152344 54.496094 C 54.015625 50.097656 53.984375 45.882812 53.105469 41.796875 C 53.078125 41.664062 53.164062 41.527344 53.300781 41.5 C 53.4375 41.46875 53.570312 41.558594 53.597656 41.691406 C 54.488281 45.839844 54.523438 50.117188 53.648438 54.578125 Z M 53.160156 54.464844 L 53.171875 54.441406 C 53.167969 54.445312 53.164062 54.453125 53.160156 54.464844 Z M 53.238281 54.355469 L 53.304688 54.53125 C 53.308594 54.535156 53.3125 54.535156 53.316406 54.535156 L 53.261719 54.34375 C 53.257812 54.34375 53.25 54.347656 53.238281 54.355469 Z M 53.496094 54.589844 C 53.5 54.589844 53.507812 54.589844 53.511719 54.59375 L 53.609375 54.417969 C 53.601562 54.40625 53.59375 54.394531 53.585938 54.390625 Z M 53.648438 54.53125 L 53.648438 54.558594 C 53.648438 54.554688 53.648438 54.554688 53.648438 54.554688 C 53.648438 54.546875 53.648438 54.539062 53.648438 54.53125 Z M 53.648438 54.53125 " fill-opacity="1" fill-rule="evenodd"/><path fill="#b87d11" d="M 54.644531 38.945312 C 54.597656 38.816406 54.664062 38.671875 54.796875 38.625 C 54.925781 38.578125 55.070312 38.644531 55.121094 38.773438 L 55.136719 38.820312 C 55.226562 39.078125 55.316406 39.332031 55.402344 39.589844 C 56.828125 43.925781 57.164062 48.398438 55.972656 53.0625 C 55.863281 53.484375 55.746094 53.910156 55.609375 54.335938 C 55.566406 54.476562 55.519531 54.613281 55.476562 54.753906 C 55.429688 54.886719 55.289062 54.957031 55.15625 54.914062 C 55.027344 54.871094 54.953125 54.726562 54.996094 54.597656 C 55.042969 54.460938 55.085938 54.324219 55.128906 54.1875 C 55.261719 53.769531 55.378906 53.351562 55.484375 52.9375 C 56.648438 48.371094 56.320312 43.992188 54.921875 39.75 C 54.839844 39.496094 54.753906 39.242188 54.660156 38.992188 Z M 54.644531 38.945312 " fill-opacity="1" fill-rule="evenodd"/><path fill="#b87d11" d="M 10.25 55.15625 L 10.25 55.167969 L 10.246094 55.175781 L 10.242188 55.214844 L 10.214844 55.277344 L 10.207031 55.28125 C 10.164062 55.347656 10.09375 55.386719 10.015625 55.394531 L 9.996094 55.402344 L 9.984375 55.394531 C 9.984375 55.394531 9.976562 55.394531 9.972656 55.394531 C 9.859375 55.382812 9.769531 55.292969 9.75 55.1875 L 9.746094 55.183594 L 9.746094 55.160156 C 9.746094 55.152344 9.746094 55.144531 9.746094 55.136719 L 9.746094 55.125 C 9.746094 55.125 9.746094 55.117188 9.746094 55.117188 C 10.183594 50.550781 10.183594 46.066406 9.636719 41.6875 C 9.621094 41.550781 9.71875 41.425781 9.855469 41.40625 C 9.992188 41.390625 10.117188 41.488281 10.136719 41.625 C 10.6875 46.035156 10.6875 50.550781 10.25 55.15625 Z M 9.796875 55.109375 L 9.800781 55.117188 C 9.898438 55.132812 10.097656 55.160156 10.195312 55.171875 L 10.199219 55.167969 C 10.105469 55.152344 9.890625 55.121094 9.796875 55.109375 Z M 9.796875 55.109375 " fill-opacity="1" fill-rule="evenodd"/><path fill="#b87d11" d="M 11.046875 42.265625 C 11.027344 42.125 11.125 42 11.261719 41.980469 C 11.398438 41.960938 11.527344 42.054688 11.546875 42.191406 C 12.15625 46.460938 11.96875 50.660156 11.527344 55.132812 C 11.527344 55.148438 11.527344 55.15625 11.527344 55.164062 C 11.503906 55.300781 11.378906 55.398438 11.242188 55.378906 C 11.101562 55.359375 11.007812 55.230469 11.027344 55.09375 C 11.027344 55.089844 11.027344 55.089844 11.027344 55.085938 C 11.464844 50.652344 11.648438 46.492188 11.046875 42.265625 Z M 11.046875 42.265625 " fill-opacity="1" fill-rule="evenodd"/><path fill="#b87d11" d="M 3.488281 53.304688 C 3.503906 53.246094 3.558594 53.050781 3.601562 52.902344 C 4.5625 49.46875 4.902344 43.570312 4.546875 39.621094 C 4.535156 39.480469 4.636719 39.359375 4.773438 39.347656 C 4.914062 39.335938 5.035156 39.4375 5.046875 39.574219 C 5.410156 43.578125 5.058594 49.554688 4.085938 53.039062 C 4.039062 53.210938 3.992188 53.394531 3.964844 53.472656 L 3.917969 53.574219 L 3.835938 53.652344 L 3.777344 53.679688 L 3.722656 53.6875 L 3.652344 53.683594 L 3.589844 53.660156 L 3.53125 53.617188 L 3.484375 53.558594 C 3.4375 53.480469 3.441406 53.382812 3.488281 53.304688 Z M 3.734375 53.183594 C 3.808594 53.195312 3.882812 53.238281 3.921875 53.308594 C 3.871094 53.222656 3.804688 53.191406 3.734375 53.183594 Z M 3.734375 53.183594 " fill-opacity="1" fill-rule="evenodd"/><path fill="#b87d11" d="M 3.660156 53.683594 C 3.519531 53.65625 3.429688 53.527344 3.457031 53.390625 C 3.480469 53.253906 3.613281 53.164062 3.75 53.1875 C 4.605469 53.34375 8.113281 54.445312 10.054688 54.898438 C 10.191406 54.929688 10.273438 55.0625 10.242188 55.199219 C 10.210938 55.335938 10.078125 55.417969 9.941406 55.386719 C 8.007812 54.9375 4.511719 53.839844 3.660156 53.683594 Z M 3.660156 53.683594 " fill-opacity="1" fill-rule="evenodd"/><path fill="#b87d11" d="M 2.214844 53.984375 C 2.078125 53.96875 1.980469 53.84375 1.996094 53.707031 C 2.011719 53.570312 2.136719 53.46875 2.273438 53.484375 L 6.878906 54.015625 C 7.015625 54.03125 7.113281 54.15625 7.101562 54.292969 C 7.082031 54.429688 6.957031 54.53125 6.820312 54.515625 Z M 2.214844 53.984375 " fill-opacity="1" fill-rule="evenodd"/><g clip-path="url(#0cac41270b)"><path fill="#b87d11" d="M 2.023438 53.613281 C 2.09375 53.492188 2.246094 53.449219 2.367188 53.515625 C 2.488281 53.582031 2.53125 53.734375 2.464844 53.859375 C 0.53125 57.328125 0.792969 62.917969 2.210938 65.546875 C 2.277344 65.667969 2.234375 65.820312 2.109375 65.886719 C 1.988281 65.953125 1.835938 65.90625 1.769531 65.785156 C 0.289062 63.050781 0.0117188 57.226562 2.023438 53.613281 Z M 2.023438 53.613281 " fill-opacity="1" fill-rule="evenodd"/></g><g clip-path="url(#ecc79fc660)"><path fill="#b87d11" d="M 1.972656 65.917969 C 1.832031 65.90625 1.730469 65.785156 1.738281 65.644531 C 1.75 65.507812 1.871094 65.402344 2.011719 65.414062 L 30.84375 67.660156 C 30.980469 67.667969 31.082031 67.789062 31.074219 67.929688 C 31.0625 68.066406 30.941406 68.171875 30.804688 68.160156 Z M 1.972656 65.917969 " fill-opacity="1" fill-rule="evenodd"/></g><g clip-path="url(#6a42ba22f7)"><path fill="#b87d11" d="M 57.207031 64.015625 C 57.34375 63.996094 57.472656 64.09375 57.488281 64.230469 C 57.507812 64.367188 57.414062 64.496094 57.273438 64.511719 L 30.855469 68.160156 C 30.71875 68.175781 30.589844 68.082031 30.574219 67.945312 C 30.554688 67.804688 30.652344 67.679688 30.789062 67.660156 Z M 57.207031 64.015625 " fill-opacity="1" fill-rule="evenodd"/></g><path fill="#b87d11" d="M 57.222656 62.597656 C 57.359375 62.582031 57.484375 62.679688 57.503906 62.816406 C 57.519531 62.953125 57.421875 63.082031 57.285156 63.097656 L 30.925781 66.472656 C 30.789062 66.488281 30.664062 66.390625 30.644531 66.253906 C 30.628906 66.117188 30.726562 65.988281 30.863281 65.972656 Z M 57.222656 62.597656 " fill-opacity="1" fill-rule="evenodd"/><path fill="#b87d11" d="M 2.890625 64.445312 C 2.75 64.4375 2.648438 64.316406 2.65625 64.175781 C 2.667969 64.039062 2.789062 63.933594 2.925781 63.945312 L 30.914062 65.972656 C 31.050781 65.980469 31.15625 66.101562 31.144531 66.238281 C 31.136719 66.378906 31.015625 66.484375 30.875 66.472656 Z M 2.890625 64.445312 " fill-opacity="1" fill-rule="evenodd"/><g clip-path="url(#0838fc2476)"><path fill="#b87d11" d="M 30.644531 66.226562 C 30.640625 66.085938 30.753906 65.972656 30.890625 65.96875 C 31.03125 65.96875 31.144531 66.078125 31.144531 66.21875 L 31.167969 67.894531 C 31.171875 68.03125 31.058594 68.144531 30.921875 68.148438 C 30.78125 68.148438 30.667969 68.039062 30.667969 67.898438 Z M 30.644531 66.226562 " fill-opacity="1" fill-rule="evenodd"/></g><g clip-path="url(#3f01a74825)"><path fill="#b87d11" d="M 30.332031 58.347656 C 30.191406 58.359375 30.070312 58.257812 30.058594 58.121094 C 30.046875 57.980469 30.148438 57.859375 30.285156 57.847656 L 58.167969 55.320312 C 58.304688 55.308594 58.429688 55.410156 58.441406 55.546875 C 58.453125 55.6875 58.351562 55.808594 58.214844 55.820312 Z M 30.332031 58.347656 " fill-opacity="1" fill-rule="evenodd"/></g><g clip-path="url(#8a93eea16b)"><path fill="#b87d11" d="M 30.867188 56.988281 C 30.730469 57.003906 30.605469 56.902344 30.59375 56.765625 C 30.578125 56.625 30.679688 56.503906 30.816406 56.488281 L 50.675781 54.480469 C 50.8125 54.46875 50.9375 54.570312 50.949219 54.707031 C 50.964844 54.84375 50.863281 54.96875 50.722656 54.984375 Z M 55.394531 54.511719 C 55.257812 54.523438 55.132812 54.425781 55.121094 54.285156 C 55.105469 54.148438 55.207031 54.023438 55.34375 54.011719 L 58.191406 53.722656 C 58.328125 53.707031 58.453125 53.808594 58.46875 53.949219 C 58.480469 54.085938 58.382812 54.210938 58.242188 54.222656 Z M 55.394531 54.511719 " fill-opacity="1" fill-rule="evenodd"/></g><g clip-path="url(#ef86534787)"><path fill="#b87d11" d="M 57.964844 53.96875 C 57.96875 53.832031 58.082031 53.71875 58.21875 53.722656 C 58.359375 53.722656 58.472656 53.839844 58.46875 53.976562 L 58.445312 55.574219 C 58.441406 55.714844 58.328125 55.824219 58.1875 55.820312 C 58.046875 55.820312 57.9375 55.707031 57.941406 55.566406 Z M 57.964844 53.96875 " fill-opacity="1" fill-rule="evenodd"/></g><g clip-path="url(#9c3af8c4eb)"><path fill="#b87d11" d="M 55.636719 53.234375 C 55.503906 53.183594 55.441406 53.039062 55.492188 52.910156 C 55.542969 52.78125 55.691406 52.714844 55.820312 52.765625 L 58.308594 53.75 C 58.4375 53.800781 58.5 53.945312 58.453125 54.078125 C 58.398438 54.207031 58.253906 54.269531 58.125 54.21875 Z M 55.636719 53.234375 " fill-opacity="1" fill-rule="evenodd"/></g><path fill="#b87d11" d="M 30.589844 56.734375 C 30.59375 56.59375 30.710938 56.484375 30.847656 56.488281 C 30.988281 56.488281 31.097656 56.605469 31.09375 56.742188 L 31.070312 58.054688 C 31.066406 58.195312 30.953125 58.304688 30.8125 58.300781 C 30.675781 58.300781 30.566406 58.183594 30.566406 58.046875 Z M 30.589844 56.734375 " fill-opacity="1" fill-rule="evenodd"/><path fill="#b87d11" d="M 3.019531 55.824219 C 2.882812 55.8125 2.78125 55.6875 2.792969 55.550781 C 2.804688 55.414062 2.925781 55.308594 3.066406 55.324219 L 30.546875 57.828125 C 30.6875 57.839844 30.789062 57.960938 30.773438 58.101562 C 30.761719 58.238281 30.640625 58.339844 30.503906 58.328125 Z M 3.019531 55.824219 " fill-opacity="1" fill-rule="evenodd"/><path fill="#b87d11" d="M 11.257812 55.378906 C 11.117188 55.367188 11.015625 55.246094 11.023438 55.109375 C 11.035156 54.96875 11.15625 54.867188 11.296875 54.878906 L 30.863281 56.488281 C 31.003906 56.5 31.105469 56.621094 31.09375 56.757812 C 31.082031 56.898438 30.960938 57 30.820312 56.988281 Z M 11.257812 55.378906 " fill-opacity="1" fill-rule="evenodd"/><path fill="#b87d11" d="M 2.8125 55.480469 C 2.863281 55.351562 3.007812 55.289062 3.136719 55.339844 C 3.265625 55.390625 3.328125 55.539062 3.277344 55.667969 C 3.046875 56.242188 3.070312 56.222656 3.058594 56.269531 C 2.550781 58.046875 2.558594 58.71875 2.5625 60.304688 C 2.566406 61.589844 2.785156 62.941406 3.148438 64.121094 C 3.191406 64.253906 3.117188 64.394531 2.984375 64.433594 C 2.851562 64.476562 2.710938 64.402344 2.667969 64.269531 C 2.289062 63.042969 2.0625 61.640625 2.058594 60.304688 C 2.050781 58.664062 2.046875 57.96875 2.574219 56.128906 C 2.589844 56.078125 2.558594 56.101562 2.8125 55.480469 Z M 2.8125 55.480469 " fill-opacity="1" fill-rule="evenodd"/><path fill="#b87d11" d="M 57 62.847656 C 57 62.707031 57.117188 62.59375 57.257812 62.597656 C 57.394531 62.597656 57.503906 62.710938 57.503906 62.851562 L 57.492188 64.265625 C 57.492188 64.40625 57.378906 64.515625 57.238281 64.515625 C 57.101562 64.515625 56.988281 64.402344 56.988281 64.261719 Z M 57 62.847656 " fill-opacity="1" fill-rule="evenodd"/><path fill="#b87d11" d="M 30.082031 57.984375 C 30.121094 57.851562 30.261719 57.773438 30.394531 57.816406 C 30.527344 57.855469 30.601562 57.996094 30.5625 58.128906 C 30.558594 58.144531 30.554688 58.15625 30.550781 58.167969 C 29.75 60.835938 29.71875 63.484375 30.742188 66.101562 C 30.792969 66.230469 30.726562 66.378906 30.597656 66.429688 C 30.46875 66.480469 30.324219 66.414062 30.273438 66.285156 C 29.207031 63.558594 29.234375 60.800781 30.066406 58.023438 C 30.074219 58.011719 30.074219 57.996094 30.082031 57.984375 Z M 30.082031 57.984375 " fill-opacity="1" fill-rule="evenodd"/><path fill="#b87d11" d="M 56.019531 55.667969 C 56.0625 55.535156 56.203125 55.464844 56.335938 55.507812 C 56.46875 55.550781 56.539062 55.691406 56.496094 55.824219 C 55.546875 58.707031 55.796875 61.085938 56.625 62.851562 C 56.683594 62.976562 56.628906 63.125 56.503906 63.1875 C 56.378906 63.246094 56.230469 63.191406 56.167969 63.066406 C 55.296875 61.207031 55.019531 58.703125 56.019531 55.667969 Z M 56.019531 55.667969 " fill-opacity="1" fill-rule="evenodd"/><path fill="#b87d11" d="M 6.238281 14.730469 C 6.101562 14.730469 5.988281 14.621094 5.984375 14.480469 C 5.984375 14.34375 6.097656 14.226562 6.234375 14.226562 C 7.746094 14.210938 7.960938 14.160156 8.804688 14.242188 C 8.941406 14.253906 9.042969 14.378906 9.03125 14.515625 C 9.019531 14.652344 8.894531 14.753906 8.757812 14.742188 C 7.929688 14.664062 7.722656 14.714844 6.238281 14.730469 Z M 6.238281 14.730469 " fill-opacity="1" fill-rule="evenodd"/><g fill="#b87d11" fill-opacity="1"><g transform="translate(59.149108, 41.85898)"><g><path d="M 4.65625 -7.59375 C 5.007812 -7.320312 5.253906 -7.03125 5.390625 -6.71875 C 5.523438 -6.425781 5.59375 -6.03125 5.59375 -5.53125 C 5.59375 -5.0625 5.539062 -4.609375 5.4375 -4.171875 C 5.320312 -3.722656 5.144531 -3.253906 4.90625 -2.765625 C 4.507812 -1.929688 4.054688 -1.304688 3.546875 -0.890625 C 3.140625 -0.554688 2.742188 -0.390625 2.359375 -0.390625 C 2.265625 -0.390625 2.171875 -0.398438 2.078125 -0.421875 C 1.679688 -0.515625 1.28125 -0.738281 0.875 -1.09375 C 0.488281 -1.457031 0.234375 -1.828125 0.109375 -2.203125 C 0.0351562 -2.503906 0 -2.863281 0 -3.28125 C 0 -3.601562 0.0234375 -3.953125 0.078125 -4.328125 C 0.179688 -5.234375 0.390625 -6.046875 0.703125 -6.765625 C 0.773438 -6.953125 0.835938 -7.070312 0.890625 -7.125 C 0.941406 -7.175781 1.015625 -7.191406 1.109375 -7.171875 C 1.191406 -7.140625 1.269531 -7.148438 1.34375 -7.203125 C 1.4375 -7.253906 1.566406 -7.367188 1.734375 -7.546875 C 1.960938 -7.785156 2.191406 -7.96875 2.421875 -8.09375 C 2.648438 -8.195312 2.898438 -8.25 3.171875 -8.25 C 3.421875 -8.25 3.65625 -8.203125 3.875 -8.109375 C 4.09375 -8.015625 4.351562 -7.84375 4.65625 -7.59375 Z M 2.515625 -5.75 C 2.421875 -5.5625 2.328125 -5.425781 2.234375 -5.34375 C 2.160156 -5.25 2.082031 -5.1875 2 -5.15625 C 1.882812 -5.132812 1.796875 -5.046875 1.734375 -4.890625 C 1.671875 -4.734375 1.582031 -4.390625 1.46875 -3.859375 C 1.394531 -3.554688 1.359375 -3.117188 1.359375 -2.546875 C 1.378906 -1.972656 1.421875 -1.65625 1.484375 -1.59375 C 1.554688 -1.519531 1.695312 -1.539062 1.90625 -1.65625 C 2.113281 -1.769531 2.347656 -1.960938 2.609375 -2.234375 C 2.878906 -2.523438 3.148438 -2.921875 3.421875 -3.421875 C 3.703125 -3.941406 3.90625 -4.4375 4.03125 -4.90625 C 4.132812 -5.269531 4.203125 -5.726562 4.234375 -6.28125 C 4.253906 -6.8125 4.21875 -7.101562 4.125 -7.15625 C 4.113281 -7.164062 4.097656 -7.171875 4.078125 -7.171875 L 4 -7.171875 C 3.800781 -7.160156 3.546875 -7.007812 3.234375 -6.71875 C 2.929688 -6.425781 2.691406 -6.101562 2.515625 -5.75 Z M 2.515625 -5.75 "/></g></g><g transform="translate(65.132181, 41.85898)"><g><path d="M 1.015625 4.046875 C 0.898438 3.972656 0.789062 3.894531 0.6875 3.8125 C 0.582031 3.726562 0.507812 3.664062 0.46875 3.625 C 0.40625 3.539062 0.40625 2.96875 0.46875 1.90625 C 0.519531 0.851562 0.628906 -0.601562 0.796875 -2.46875 C 0.835938 -2.914062 0.894531 -3.59375 0.96875 -4.5 C 0.90625 -4.539062 0.796875 -4.609375 0.640625 -4.703125 C 0.140625 -5.023438 -0.125 -5.242188 -0.15625 -5.359375 L -0.15625 -5.375 C -0.15625 -5.488281 0.0351562 -5.625 0.421875 -5.78125 C 0.566406 -5.832031 0.707031 -5.882812 0.84375 -5.9375 C 0.96875 -5.988281 1.046875 -6.023438 1.078125 -6.046875 C 1.097656 -6.054688 1.140625 -6.242188 1.203125 -6.609375 C 1.285156 -6.972656 1.363281 -7.40625 1.4375 -7.90625 C 1.707031 -9.675781 2 -11.070312 2.3125 -12.09375 C 2.625 -13.125 2.976562 -13.859375 3.375 -14.296875 C 3.632812 -14.585938 3.875 -14.769531 4.09375 -14.84375 C 4.1875 -14.875 4.285156 -14.894531 4.390625 -14.90625 C 4.523438 -14.90625 4.6875 -14.875 4.875 -14.8125 C 5.132812 -14.71875 5.421875 -14.566406 5.734375 -14.359375 C 6.023438 -14.140625 6.234375 -13.945312 6.359375 -13.78125 C 6.460938 -13.601562 6.523438 -13.351562 6.546875 -13.03125 C 6.554688 -12.945312 6.5625 -12.863281 6.5625 -12.78125 C 6.5625 -12.5625 6.535156 -12.347656 6.484375 -12.140625 C 6.398438 -11.753906 6.285156 -11.539062 6.140625 -11.5 C 5.992188 -11.457031 5.726562 -11.570312 5.34375 -11.84375 C 5.238281 -11.925781 5.082031 -12.035156 4.875 -12.171875 C 4.914062 -12.316406 4.96875 -12.539062 5.03125 -12.84375 C 5.101562 -13.238281 5.140625 -13.476562 5.140625 -13.5625 C 5.140625 -13.625 5.101562 -13.65625 5.03125 -13.65625 C 4.832031 -13.632812 4.582031 -13.316406 4.28125 -12.703125 C 3.988281 -12.085938 3.742188 -11.378906 3.546875 -10.578125 C 3.484375 -10.328125 3.414062 -10.050781 3.34375 -9.75 C 3.28125 -9.445312 3.222656 -9.140625 3.171875 -8.828125 C 3.054688 -8.242188 2.972656 -7.722656 2.921875 -7.265625 C 2.859375 -6.796875 2.835938 -6.550781 2.859375 -6.53125 C 2.890625 -6.5 2.992188 -6.476562 3.171875 -6.46875 C 3.335938 -6.445312 3.523438 -6.4375 3.734375 -6.4375 C 4.128906 -6.4375 4.429688 -6.410156 4.640625 -6.359375 C 4.847656 -6.285156 5.066406 -6.160156 5.296875 -5.984375 C 5.515625 -5.816406 5.59375 -5.695312 5.53125 -5.625 C 5.46875 -5.5625 5.226562 -5.523438 4.8125 -5.515625 C 4.375 -5.503906 3.910156 -5.453125 3.421875 -5.359375 C 2.929688 -5.265625 2.664062 -5.171875 2.625 -5.078125 C 2.59375 -5.003906 2.535156 -4.628906 2.453125 -3.953125 C 2.378906 -3.273438 2.296875 -2.445312 2.203125 -1.46875 C 2.160156 -0.914062 2.113281 -0.347656 2.0625 0.234375 C 2.019531 0.828125 1.972656 1.4375 1.921875 2.0625 C 1.890625 2.632812 1.859375 3.128906 1.828125 3.546875 C 1.785156 3.960938 1.757812 4.179688 1.75 4.203125 C 1.726562 4.253906 1.6875 4.289062 1.625 4.3125 C 1.59375 4.3125 1.554688 4.300781 1.515625 4.28125 C 1.398438 4.257812 1.234375 4.179688 1.015625 4.046875 Z M 1.015625 4.046875 "/></g></g><g transform="translate(71.50503, 41.85898)"><g/></g><g transform="translate(76.883949, 41.85898)"><g><path d="M 2.8125 0.09375 C 2.550781 -0.0820312 2.375 -0.226562 2.28125 -0.34375 C 2.1875 -0.445312 2.132812 -0.722656 2.125 -1.171875 L 2.125 -3.0625 C 2.125 -3.25 2.128906 -3.414062 2.140625 -3.5625 C 2.140625 -3.925781 2.160156 -4.21875 2.203125 -4.4375 C 2.242188 -4.664062 2.304688 -4.945312 2.390625 -5.28125 C 2.546875 -5.914062 2.742188 -6.539062 2.984375 -7.15625 C 3.222656 -7.78125 3.5625 -8.515625 4 -9.359375 C 4.207031 -9.785156 4.378906 -10.109375 4.515625 -10.328125 C 4.648438 -10.554688 4.742188 -10.671875 4.796875 -10.671875 C 4.867188 -10.671875 5.039062 -10.582031 5.3125 -10.40625 C 5.59375 -10.238281 5.773438 -10.097656 5.859375 -9.984375 C 5.910156 -9.910156 5.898438 -9.765625 5.828125 -9.546875 C 5.742188 -9.335938 5.535156 -8.90625 5.203125 -8.25 C 4.992188 -7.8125 4.816406 -7.429688 4.671875 -7.109375 C 4.535156 -6.785156 4.472656 -6.617188 4.484375 -6.609375 C 4.535156 -6.566406 4.769531 -6.671875 5.1875 -6.921875 C 5.601562 -7.179688 6.0625 -7.5 6.5625 -7.875 C 7.601562 -8.664062 8.421875 -9.484375 9.015625 -10.328125 C 9.609375 -11.179688 9.90625 -11.976562 9.90625 -12.71875 C 9.90625 -12.925781 9.890625 -13.070312 9.859375 -13.15625 C 9.835938 -13.226562 9.789062 -13.28125 9.71875 -13.3125 C 9.59375 -13.363281 9.320312 -13.34375 8.90625 -13.25 C 8.476562 -13.15625 8.078125 -13.03125 7.703125 -12.875 C 6.679688 -12.445312 5.710938 -11.789062 4.796875 -10.90625 C 3.867188 -10.03125 3.066406 -9 2.390625 -7.8125 C 2.054688 -7.21875 1.847656 -6.859375 1.765625 -6.734375 C 1.691406 -6.617188 1.625 -6.5625 1.5625 -6.5625 C 1.46875 -6.5625 1.269531 -6.664062 0.96875 -6.875 C 0.675781 -7.082031 0.503906 -7.234375 0.453125 -7.328125 C 0.429688 -7.347656 0.421875 -7.375 0.421875 -7.40625 C 0.421875 -7.46875 0.457031 -7.570312 0.53125 -7.71875 C 0.613281 -7.894531 0.785156 -8.21875 1.046875 -8.6875 C 1.242188 -9.007812 1.453125 -9.347656 1.671875 -9.703125 C 1.910156 -10.054688 2.09375 -10.316406 2.21875 -10.484375 C 2.582031 -10.960938 2.992188 -11.414062 3.453125 -11.84375 C 3.890625 -12.257812 4.34375 -12.628906 4.8125 -12.953125 C 5.6875 -13.554688 6.550781 -13.976562 7.40625 -14.21875 C 7.789062 -14.320312 8.144531 -14.375 8.46875 -14.375 C 8.863281 -14.375 9.210938 -14.296875 9.515625 -14.140625 C 9.890625 -13.953125 10.195312 -13.742188 10.4375 -13.515625 C 10.6875 -13.296875 10.867188 -13.054688 10.984375 -12.796875 C 11.109375 -12.578125 11.179688 -12.394531 11.203125 -12.25 C 11.234375 -12.125 11.234375 -11.921875 11.203125 -11.640625 C 11.160156 -11.117188 10.992188 -10.578125 10.703125 -10.015625 C 10.410156 -9.453125 9.992188 -8.875 9.453125 -8.28125 C 9.335938 -8.164062 9.160156 -7.976562 8.921875 -7.71875 L 9.765625 -7.71875 C 10.523438 -7.71875 11.195312 -7.609375 11.78125 -7.390625 C 12.375 -7.179688 12.9375 -6.835938 13.46875 -6.359375 C 13.832031 -6.046875 14.078125 -5.75 14.203125 -5.46875 C 14.347656 -5.195312 14.421875 -4.867188 14.421875 -4.484375 C 14.421875 -4.078125 14.328125 -3.695312 14.140625 -3.34375 C 13.972656 -3 13.695312 -2.640625 13.3125 -2.265625 C 12.632812 -1.597656 11.773438 -1.070312 10.734375 -0.6875 C 9.691406 -0.28125 8.582031 -0.0546875 7.40625 -0.015625 C 6.570312 0.00390625 5.941406 -0.0351562 5.515625 -0.140625 C 5.085938 -0.242188 4.660156 -0.46875 4.234375 -0.8125 C 3.921875 -1.0625 3.710938 -1.28125 3.609375 -1.46875 C 3.515625 -1.644531 3.492188 -1.835938 3.546875 -2.046875 C 3.585938 -2.222656 3.695312 -2.398438 3.875 -2.578125 C 4.070312 -2.742188 4.3125 -2.90625 4.59375 -3.0625 C 5.125 -3.332031 5.804688 -3.550781 6.640625 -3.71875 C 7.484375 -3.90625 8.367188 -4 9.296875 -4 L 10.15625 -4 C 10.269531 -3.914062 10.429688 -3.785156 10.640625 -3.609375 C 10.785156 -3.503906 10.898438 -3.40625 10.984375 -3.3125 C 11.078125 -3.21875 11.125 -3.160156 11.125 -3.140625 C 11.125 -3.085938 11.007812 -3.039062 10.78125 -3 C 10.539062 -2.976562 10.117188 -2.945312 9.515625 -2.90625 C 8.890625 -2.875 8.3125 -2.804688 7.78125 -2.703125 C 7.226562 -2.597656 6.726562 -2.453125 6.28125 -2.265625 C 5.945312 -2.128906 5.625 -1.9375 5.3125 -1.6875 C 4.988281 -1.445312 4.828125 -1.273438 4.828125 -1.171875 C 4.828125 -1.078125 5.035156 -1.019531 5.453125 -1 C 5.867188 -0.976562 6.304688 -0.992188 6.765625 -1.046875 C 7.835938 -1.171875 8.816406 -1.410156 9.703125 -1.765625 C 10.585938 -2.128906 11.34375 -2.597656 11.96875 -3.171875 C 12.351562 -3.535156 12.628906 -3.890625 12.796875 -4.234375 C 12.984375 -4.566406 13.078125 -4.921875 13.078125 -5.296875 C 13.085938 -5.691406 13.039062 -5.972656 12.9375 -6.140625 C 12.832031 -6.304688 12.628906 -6.4375 12.328125 -6.53125 C 12.003906 -6.613281 11.5 -6.65625 10.8125 -6.65625 C 10.132812 -6.65625 9.550781 -6.613281 9.0625 -6.53125 C 8.550781 -6.425781 7.945312 -6.25 7.25 -6 C 6.5625 -5.769531 5.914062 -5.507812 5.3125 -5.21875 C 4.914062 -5.039062 4.644531 -4.925781 4.5 -4.875 C 4.34375 -4.820312 4.226562 -4.820312 4.15625 -4.875 C 4.019531 -4.9375 3.921875 -4.921875 3.859375 -4.828125 C 3.796875 -4.742188 3.71875 -4.476562 3.625 -4.03125 C 3.5625 -3.75 3.515625 -3.425781 3.484375 -3.0625 C 3.460938 -2.6875 3.453125 -2.144531 3.453125 -1.4375 C 3.453125 -0.8125 3.441406 -0.351562 3.421875 -0.0625 C 3.410156 0.238281 3.382812 0.390625 3.34375 0.390625 C 3.320312 0.390625 3.257812 0.363281 3.15625 0.3125 C 3.050781 0.25 2.9375 0.175781 2.8125 0.09375 Z M 2.8125 0.09375 "/></g></g><g transform="translate(91.656487, 41.85898)"><g><path d="M 4.65625 -7.59375 C 5.007812 -7.320312 5.253906 -7.03125 5.390625 -6.71875 C 5.523438 -6.425781 5.59375 -6.03125 5.59375 -5.53125 C 5.59375 -5.0625 5.539062 -4.609375 5.4375 -4.171875 C 5.320312 -3.722656 5.144531 -3.253906 4.90625 -2.765625 C 4.507812 -1.929688 4.054688 -1.304688 3.546875 -0.890625 C 3.140625 -0.554688 2.742188 -0.390625 2.359375 -0.390625 C 2.265625 -0.390625 2.171875 -0.398438 2.078125 -0.421875 C 1.679688 -0.515625 1.28125 -0.738281 0.875 -1.09375 C 0.488281 -1.457031 0.234375 -1.828125 0.109375 -2.203125 C 0.0351562 -2.503906 0 -2.863281 0 -3.28125 C 0 -3.601562 0.0234375 -3.953125 0.078125 -4.328125 C 0.179688 -5.234375 0.390625 -6.046875 0.703125 -6.765625 C 0.773438 -6.953125 0.835938 -7.070312 0.890625 -7.125 C 0.941406 -7.175781 1.015625 -7.191406 1.109375 -7.171875 C 1.191406 -7.140625 1.269531 -7.148438 1.34375 -7.203125 C 1.4375 -7.253906 1.566406 -7.367188 1.734375 -7.546875 C 1.960938 -7.785156 2.191406 -7.96875 2.421875 -8.09375 C 2.648438 -8.195312 2.898438 -8.25 3.171875 -8.25 C 3.421875 -8.25 3.65625 -8.203125 3.875 -8.109375 C 4.09375 -8.015625 4.351562 -7.84375 4.65625 -7.59375 Z M 2.515625 -5.75 C 2.421875 -5.5625 2.328125 -5.425781 2.234375 -5.34375 C 2.160156 -5.25 2.082031 -5.1875 2 -5.15625 C 1.882812 -5.132812 1.796875 -5.046875 1.734375 -4.890625 C 1.671875 -4.734375 1.582031 -4.390625 1.46875 -3.859375 C 1.394531 -3.554688 1.359375 -3.117188 1.359375 -2.546875 C 1.378906 -1.972656 1.421875 -1.65625 1.484375 -1.59375 C 1.554688 -1.519531 1.695312 -1.539062 1.90625 -1.65625 C 2.113281 -1.769531 2.347656 -1.960938 2.609375 -2.234375 C 2.878906 -2.523438 3.148438 -2.921875 3.421875 -3.421875 C 3.703125 -3.941406 3.90625 -4.4375 4.03125 -4.90625 C 4.132812 -5.269531 4.203125 -5.726562 4.234375 -6.28125 C 4.253906 -6.8125 4.21875 -7.101562 4.125 -7.15625 C 4.113281 -7.164062 4.097656 -7.171875 4.078125 -7.171875 L 4 -7.171875 C 3.800781 -7.160156 3.546875 -7.007812 3.234375 -6.71875 C 2.929688 -6.425781 2.691406 -6.101562 2.515625 -5.75 Z M 2.515625 -5.75 "/></g></g><g transform="translate(97.639559, 41.85898)"><g><path d="M 4.65625 -7.59375 C 5.007812 -7.320312 5.253906 -7.03125 5.390625 -6.71875 C 5.523438 -6.425781 5.59375 -6.03125 5.59375 -5.53125 C 5.59375 -5.0625 5.539062 -4.609375 5.4375 -4.171875 C 5.320312 -3.722656 5.144531 -3.253906 4.90625 -2.765625 C 4.507812 -1.929688 4.054688 -1.304688 3.546875 -0.890625 C 3.140625 -0.554688 2.742188 -0.390625 2.359375 -0.390625 C 2.265625 -0.390625 2.171875 -0.398438 2.078125 -0.421875 C 1.679688 -0.515625 1.28125 -0.738281 0.875 -1.09375 C 0.488281 -1.457031 0.234375 -1.828125 0.109375 -2.203125 C 0.0351562 -2.503906 0 -2.863281 0 -3.28125 C 0 -3.601562 0.0234375 -3.953125 0.078125 -4.328125 C 0.179688 -5.234375 0.390625 -6.046875 0.703125 -6.765625 C 0.773438 -6.953125 0.835938 -7.070312 0.890625 -7.125 C 0.941406 -7.175781 1.015625 -7.191406 1.109375 -7.171875 C 1.191406 -7.140625 1.269531 -7.148438 1.34375 -7.203125 C 1.4375 -7.253906 1.566406 -7.367188 1.734375 -7.546875 C 1.960938 -7.785156 2.191406 -7.96875 2.421875 -8.09375 C 2.648438 -8.195312 2.898438 -8.25 3.171875 -8.25 C 3.421875 -8.25 3.65625 -8.203125 3.875 -8.109375 C 4.09375 -8.015625 4.351562 -7.84375 4.65625 -7.59375 Z M 2.515625 -5.75 C 2.421875 -5.5625 2.328125 -5.425781 2.234375 -5.34375 C 2.160156 -5.25 2.082031 -5.1875 2 -5.15625 C 1.882812 -5.132812 1.796875 -5.046875 1.734375 -4.890625 C 1.671875 -4.734375 1.582031 -4.390625 1.46875 -3.859375 C 1.394531 -3.554688 1.359375 -3.117188 1.359375 -2.546875 C 1.378906 -1.972656 1.421875 -1.65625 1.484375 -1.59375 C 1.554688 -1.519531 1.695312 -1.539062 1.90625 -1.65625 C 2.113281 -1.769531 2.347656 -1.960938 2.609375 -2.234375 C 2.878906 -2.523438 3.148438 -2.921875 3.421875 -3.421875 C 3.703125 -3.941406 3.90625 -4.4375 4.03125 -4.90625 C 4.132812 -5.269531 4.203125 -5.726562 4.234375 -6.28125 C 4.253906 -6.8125 4.21875 -7.101562 4.125 -7.15625 C 4.113281 -7.164062 4.097656 -7.171875 4.078125 -7.171875 L 4 -7.171875 C 3.800781 -7.160156 3.546875 -7.007812 3.234375 -6.71875 C 2.929688 -6.425781 2.691406 -6.101562 2.515625 -5.75 Z M 2.515625 -5.75 "/></g></g><g transform="translate(103.622632, 41.85898)"><g><path d="M 0.96875 0.1875 C 0.9375 0.175781 0.867188 0.132812 0.765625 0.0625 C 0.640625 -0.0195312 0.519531 -0.101562 0.40625 -0.1875 C 0.3125 -0.269531 0.175781 -0.382812 0 -0.53125 L 0.0625 -1.34375 C 0.0820312 -1.726562 0.144531 -2.375 0.25 -3.28125 C 0.363281 -4.175781 0.492188 -5.175781 0.640625 -6.28125 C 0.722656 -6.875 0.800781 -7.484375 0.875 -8.109375 C 0.957031 -8.710938 1.039062 -9.316406 1.125 -9.921875 C 1.3125 -11.304688 1.484375 -12.515625 1.640625 -13.546875 C 1.796875 -14.554688 1.890625 -15.082031 1.921875 -15.125 C 1.960938 -15.15625 2.007812 -15.171875 2.0625 -15.171875 C 2.195312 -15.171875 2.382812 -15.078125 2.625 -14.890625 C 2.988281 -14.628906 3.171875 -14.394531 3.171875 -14.1875 C 3.171875 -14.125 3.109375 -13.632812 2.984375 -12.71875 C 2.867188 -11.8125 2.722656 -10.753906 2.546875 -9.546875 C 2.378906 -8.328125 2.238281 -7.265625 2.125 -6.359375 C 2.007812 -5.441406 1.953125 -4.953125 1.953125 -4.890625 C 1.960938 -4.796875 2.03125 -4.820312 2.15625 -4.96875 C 2.28125 -5.125 2.53125 -5.484375 2.90625 -6.046875 C 3.488281 -6.898438 4.015625 -7.609375 4.484375 -8.171875 C 4.953125 -8.710938 5.265625 -8.984375 5.421875 -8.984375 C 5.546875 -8.984375 5.753906 -8.878906 6.046875 -8.671875 C 6.328125 -8.460938 6.472656 -8.300781 6.484375 -8.1875 L 6.484375 -8.171875 C 6.484375 -8.117188 6.453125 -8.03125 6.390625 -7.90625 C 6.296875 -7.78125 6.1875 -7.644531 6.0625 -7.5 C 5.875 -7.289062 5.675781 -7.046875 5.46875 -6.765625 C 5.25 -6.492188 5.03125 -6.207031 4.8125 -5.90625 C 4.40625 -5.351562 4.046875 -4.832031 3.734375 -4.34375 C 3.429688 -3.851562 3.28125 -3.5625 3.28125 -3.46875 C 3.28125 -3.382812 3.394531 -3.296875 3.625 -3.203125 C 3.851562 -3.109375 4.144531 -3.03125 4.5 -2.96875 C 4.882812 -2.882812 5.257812 -2.710938 5.625 -2.453125 C 5.988281 -2.179688 6.113281 -1.988281 6 -1.875 C 5.9375 -1.800781 5.628906 -1.84375 5.078125 -2 C 4.535156 -2.175781 4.097656 -2.347656 3.765625 -2.515625 C 3.566406 -2.617188 3.390625 -2.703125 3.234375 -2.765625 C 3.078125 -2.847656 2.988281 -2.890625 2.96875 -2.890625 C 2.9375 -2.890625 2.835938 -2.734375 2.671875 -2.421875 C 2.503906 -2.117188 2.316406 -1.75 2.109375 -1.3125 C 1.898438 -0.875 1.710938 -0.5 1.546875 -0.1875 C 1.367188 0.101562 1.265625 0.25 1.234375 0.25 C 1.203125 0.25 1.160156 0.242188 1.109375 0.234375 C 1.054688 0.222656 1.007812 0.207031 0.96875 0.1875 Z M 0.96875 0.1875 "/></g></g><g transform="translate(110.01497, 41.85898)"><g><path d="M 1.890625 -0.0625 C 1.609375 -0.132812 1.257812 -0.320312 0.84375 -0.625 C 0.40625 -0.925781 0.1875 -1.140625 0.1875 -1.265625 C 0.1875 -1.378906 0.207031 -1.4375 0.25 -1.4375 C 0.289062 -1.4375 0.46875 -1.367188 0.78125 -1.234375 C 1.03125 -1.109375 1.195312 -1.039062 1.28125 -1.03125 C 1.382812 -1.019531 1.539062 -1.046875 1.75 -1.109375 C 2.25 -1.265625 2.738281 -1.5625 3.21875 -2 C 3.695312 -2.445312 4.066406 -2.941406 4.328125 -3.484375 C 4.484375 -3.804688 4.566406 -4.046875 4.578125 -4.203125 C 4.609375 -4.378906 4.570312 -4.472656 4.46875 -4.484375 C 4.414062 -4.492188 4.273438 -4.46875 4.046875 -4.40625 C 3.816406 -4.320312 3.566406 -4.226562 3.296875 -4.125 C 2.660156 -3.882812 2.1875 -3.753906 1.875 -3.734375 C 1.5625 -3.722656 1.242188 -3.820312 0.921875 -4.03125 C 0.566406 -4.269531 0.320312 -4.484375 0.1875 -4.671875 C 0.0625 -4.867188 0 -5.109375 0 -5.390625 C 0 -5.703125 0.078125 -6.050781 0.234375 -6.4375 C 0.390625 -6.8125 0.628906 -7.234375 0.953125 -7.703125 C 1.046875 -7.835938 1.171875 -7.992188 1.328125 -8.171875 C 1.484375 -8.347656 1.644531 -8.523438 1.8125 -8.703125 C 2.125 -9.046875 2.441406 -9.359375 2.765625 -9.640625 C 3.078125 -9.910156 3.289062 -10.0625 3.40625 -10.09375 C 3.445312 -10.101562 3.488281 -10.109375 3.53125 -10.109375 C 3.644531 -10.109375 3.78125 -10.070312 3.9375 -10 C 4.144531 -9.894531 4.347656 -9.742188 4.546875 -9.546875 C 4.578125 -9.492188 4.617188 -9.4375 4.671875 -9.375 C 4.722656 -9.289062 4.710938 -9.21875 4.640625 -9.15625 C 4.585938 -9.113281 4.515625 -9.050781 4.421875 -8.96875 C 4.003906 -8.625 3.578125 -8.210938 3.140625 -7.734375 C 2.679688 -7.253906 2.351562 -6.859375 2.15625 -6.546875 C 1.925781 -6.179688 1.738281 -5.847656 1.59375 -5.546875 C 1.457031 -5.234375 1.414062 -5.050781 1.46875 -5 C 1.476562 -4.988281 1.566406 -5.007812 1.734375 -5.0625 C 1.898438 -5.113281 2.085938 -5.179688 2.296875 -5.265625 C 2.910156 -5.503906 3.363281 -5.644531 3.65625 -5.6875 C 3.957031 -5.738281 4.242188 -5.710938 4.515625 -5.609375 C 4.640625 -5.554688 4.789062 -5.472656 4.96875 -5.359375 C 5.164062 -5.242188 5.328125 -5.117188 5.453125 -4.984375 C 5.660156 -4.796875 5.796875 -4.613281 5.859375 -4.4375 C 5.929688 -4.269531 5.96875 -4.0625 5.96875 -3.8125 C 5.96875 -3.351562 5.863281 -2.90625 5.65625 -2.46875 C 5.445312 -2.050781 5.117188 -1.617188 4.671875 -1.171875 C 4.191406 -0.691406 3.726562 -0.359375 3.28125 -0.171875 C 2.988281 -0.0546875 2.703125 0 2.421875 0 C 2.242188 0 2.066406 -0.0195312 1.890625 -0.0625 Z M 1.890625 -0.0625 "/></g></g></g><g fill="#b87d11" fill-opacity="1"><g transform="translate(79.050073, 21.029314)"><g><path d="M 6.484375 1.84375 C 6.367188 1.78125 6.222656 1.671875 6.046875 1.515625 C 5.867188 1.359375 5.71875 1.21875 5.59375 1.09375 C 5.125 0.582031 4.8125 0.00390625 4.65625 -0.640625 C 4.507812 -1.273438 4.484375 -2.160156 4.578125 -3.296875 C 4.609375 -3.660156 4.65625 -4.101562 4.71875 -4.625 C 4.78125 -5.125 4.859375 -5.675781 4.953125 -6.28125 C 5.117188 -7.382812 5.316406 -8.53125 5.546875 -9.71875 C 5.773438 -10.914062 5.992188 -11.925781 6.203125 -12.75 L 6.328125 -13.296875 C 6.359375 -13.460938 6.367188 -13.546875 6.359375 -13.546875 C 6.328125 -13.566406 6.066406 -13.503906 5.578125 -13.359375 C 5.078125 -13.210938 4.53125 -13.039062 3.9375 -12.84375 C 3.613281 -12.726562 3.289062 -12.617188 2.96875 -12.515625 C 2.65625 -12.390625 2.375 -12.285156 2.125 -12.203125 C 1.757812 -12.054688 1.425781 -11.929688 1.125 -11.828125 C 0.8125 -11.722656 0.628906 -11.671875 0.578125 -11.671875 C 0.410156 -11.671875 0.164062 -11.804688 -0.15625 -12.078125 C -0.414062 -12.296875 -0.546875 -12.457031 -0.546875 -12.5625 C -0.546875 -12.59375 -0.539062 -12.613281 -0.53125 -12.625 C -0.5 -12.65625 -0.328125 -12.726562 -0.015625 -12.84375 C 0.304688 -12.96875 0.675781 -13.109375 1.09375 -13.265625 C 2.882812 -13.941406 4.648438 -14.488281 6.390625 -14.90625 C 8.128906 -15.332031 9.863281 -15.640625 11.59375 -15.828125 C 11.894531 -15.859375 12.160156 -15.882812 12.390625 -15.90625 C 12.609375 -15.925781 12.796875 -15.941406 12.953125 -15.953125 L 13.25 -15.953125 C 13.476562 -15.953125 13.644531 -15.9375 13.75 -15.90625 C 13.90625 -15.851562 14.082031 -15.75 14.28125 -15.59375 C 14.601562 -15.332031 14.765625 -15.15625 14.765625 -15.0625 C 14.765625 -14.96875 14.597656 -14.921875 14.265625 -14.921875 C 13.953125 -14.921875 13.484375 -14.882812 12.859375 -14.8125 C 12.222656 -14.75 11.566406 -14.664062 10.890625 -14.5625 C 10.523438 -14.507812 10.171875 -14.445312 9.828125 -14.375 C 9.472656 -14.3125 9.144531 -14.25 8.84375 -14.1875 C 8.6875 -14.15625 8.445312 -14.101562 8.125 -14.03125 L 7.828125 -12.984375 C 7.648438 -12.359375 7.476562 -11.679688 7.3125 -10.953125 C 7.15625 -10.222656 7 -9.472656 6.84375 -8.703125 C 6.570312 -7.304688 6.34375 -5.945312 6.15625 -4.625 C 5.976562 -3.28125 5.890625 -2.238281 5.890625 -1.5 C 5.867188 -0.644531 5.910156 -0.03125 6.015625 0.34375 C 6.117188 0.738281 6.332031 1.117188 6.65625 1.484375 C 6.914062 1.765625 7.03125 1.945312 7 2.03125 C 6.976562 2.050781 6.957031 2.0625 6.9375 2.0625 C 6.84375 2.0625 6.691406 1.988281 6.484375 1.84375 Z M 6.484375 1.84375 "/></g></g><g transform="translate(91.425484, 21.029314)"><g><path d="M 4.65625 -7.59375 C 5.007812 -7.320312 5.253906 -7.03125 5.390625 -6.71875 C 5.523438 -6.425781 5.59375 -6.03125 5.59375 -5.53125 C 5.59375 -5.0625 5.539062 -4.609375 5.4375 -4.171875 C 5.320312 -3.722656 5.144531 -3.253906 4.90625 -2.765625 C 4.507812 -1.929688 4.054688 -1.304688 3.546875 -0.890625 C 3.140625 -0.554688 2.742188 -0.390625 2.359375 -0.390625 C 2.265625 -0.390625 2.171875 -0.398438 2.078125 -0.421875 C 1.679688 -0.515625 1.28125 -0.738281 0.875 -1.09375 C 0.488281 -1.457031 0.234375 -1.828125 0.109375 -2.203125 C 0.0351562 -2.503906 0 -2.863281 0 -3.28125 C 0 -3.601562 0.0234375 -3.953125 0.078125 -4.328125 C 0.179688 -5.234375 0.390625 -6.046875 0.703125 -6.765625 C 0.773438 -6.953125 0.835938 -7.070312 0.890625 -7.125 C 0.941406 -7.175781 1.015625 -7.191406 1.109375 -7.171875 C 1.191406 -7.140625 1.269531 -7.148438 1.34375 -7.203125 C 1.4375 -7.253906 1.566406 -7.367188 1.734375 -7.546875 C 1.960938 -7.785156 2.191406 -7.96875 2.421875 -8.09375 C 2.648438 -8.195312 2.898438 -8.25 3.171875 -8.25 C 3.421875 -8.25 3.65625 -8.203125 3.875 -8.109375 C 4.09375 -8.015625 4.351562 -7.84375 4.65625 -7.59375 Z M 2.515625 -5.75 C 2.421875 -5.5625 2.328125 -5.425781 2.234375 -5.34375 C 2.160156 -5.25 2.082031 -5.1875 2 -5.15625 C 1.882812 -5.132812 1.796875 -5.046875 1.734375 -4.890625 C 1.671875 -4.734375 1.582031 -4.390625 1.46875 -3.859375 C 1.394531 -3.554688 1.359375 -3.117188 1.359375 -2.546875 C 1.378906 -1.972656 1.421875 -1.65625 1.484375 -1.59375 C 1.554688 -1.519531 1.695312 -1.539062 1.90625 -1.65625 C 2.113281 -1.769531 2.347656 -1.960938 2.609375 -2.234375 C 2.878906 -2.523438 3.148438 -2.921875 3.421875 -3.421875 C 3.703125 -3.941406 3.90625 -4.4375 4.03125 -4.90625 C 4.132812 -5.269531 4.203125 -5.726562 4.234375 -6.28125 C 4.253906 -6.8125 4.21875 -7.101562 4.125 -7.15625 C 4.113281 -7.164062 4.097656 -7.171875 4.078125 -7.171875 L 4 -7.171875 C 3.800781 -7.160156 3.546875 -7.007812 3.234375 -6.71875 C 2.929688 -6.425781 2.691406 -6.101562 2.515625 -5.75 Z M 2.515625 -5.75 "/></g></g><g transform="translate(97.408557, 21.029314)"><g><path d="M 6.65625 -0.53125 C 6.25 -0.6875 5.8125 -0.984375 5.34375 -1.421875 C 4.882812 -1.847656 4.550781 -2.273438 4.34375 -2.703125 C 4.28125 -2.835938 4.226562 -2.96875 4.1875 -3.09375 C 4.132812 -3.21875 4.109375 -3.296875 4.109375 -3.328125 C 4.109375 -3.429688 4.0625 -3.453125 3.96875 -3.390625 C 3.882812 -3.328125 3.75 -3.171875 3.5625 -2.921875 C 3.175781 -2.410156 2.828125 -2.117188 2.515625 -2.046875 C 2.191406 -1.984375 1.800781 -2.109375 1.34375 -2.421875 C 0.8125 -2.785156 0.445312 -3.234375 0.25 -3.765625 C 0.125 -4.097656 0.0625 -4.5 0.0625 -4.96875 C 0.0625 -5.21875 0.078125 -5.476562 0.109375 -5.75 C 0.160156 -6.1875 0.234375 -6.601562 0.328125 -7 C 0.421875 -7.375 0.503906 -7.59375 0.578125 -7.65625 C 0.648438 -7.738281 0.769531 -7.742188 0.9375 -7.671875 C 1.09375 -7.617188 1.273438 -7.507812 1.484375 -7.34375 C 1.691406 -7.164062 1.800781 -7.003906 1.8125 -6.859375 C 1.820312 -6.703125 1.75 -6.304688 1.59375 -5.671875 C 1.507812 -5.273438 1.46875 -4.796875 1.46875 -4.234375 C 1.445312 -3.660156 1.476562 -3.347656 1.5625 -3.296875 C 1.644531 -3.234375 1.804688 -3.34375 2.046875 -3.625 C 2.265625 -3.90625 2.5 -4.269531 2.75 -4.71875 C 2.875 -4.957031 3 -5.207031 3.125 -5.46875 C 3.25 -5.75 3.359375 -6.023438 3.453125 -6.296875 C 3.523438 -6.492188 3.601562 -6.664062 3.6875 -6.8125 C 3.757812 -6.988281 3.816406 -7.085938 3.859375 -7.109375 C 3.953125 -7.160156 4.078125 -7.148438 4.234375 -7.078125 C 4.390625 -6.992188 4.582031 -6.847656 4.8125 -6.640625 C 4.894531 -6.578125 5.003906 -6.484375 5.140625 -6.359375 C 5.148438 -6.015625 5.171875 -5.519531 5.203125 -4.875 C 5.242188 -3.789062 5.351562 -2.957031 5.53125 -2.375 C 5.71875 -1.789062 5.957031 -1.488281 6.25 -1.46875 C 6.726562 -1.394531 7.195312 -1.582031 7.65625 -2.03125 C 8.113281 -2.46875 8.488281 -3.050781 8.78125 -3.78125 C 8.957031 -4.1875 9.101562 -4.613281 9.21875 -5.0625 C 9.320312 -5.519531 9.394531 -5.992188 9.4375 -6.484375 C 9.46875 -7.066406 9.425781 -7.601562 9.3125 -8.09375 C 9.195312 -8.550781 8.988281 -9.023438 8.6875 -9.515625 C 8.570312 -9.703125 8.566406 -9.8125 8.671875 -9.84375 L 8.703125 -9.84375 C 8.828125 -9.84375 9 -9.769531 9.21875 -9.625 C 9.644531 -9.34375 10 -8.914062 10.28125 -8.34375 C 10.5625 -7.78125 10.71875 -7.160156 10.75 -6.484375 C 10.769531 -6.316406 10.78125 -6.15625 10.78125 -6 C 10.78125 -5.375 10.703125 -4.738281 10.546875 -4.09375 C 10.347656 -3.289062 10.066406 -2.582031 9.703125 -1.96875 C 9.523438 -1.644531 9.316406 -1.363281 9.078125 -1.125 C 8.859375 -0.882812 8.625 -0.703125 8.375 -0.578125 C 8.144531 -0.460938 7.867188 -0.398438 7.546875 -0.390625 L 7.46875 -0.390625 C 7.175781 -0.390625 6.90625 -0.4375 6.65625 -0.53125 Z M 6.65625 -0.53125 "/></g></g><g transform="translate(108.595149, 21.029314)"><g><path d="M 4.125 -8.9375 C 4.351562 -8.882812 4.664062 -8.726562 5.0625 -8.46875 C 5.457031 -8.226562 5.71875 -8.003906 5.84375 -7.796875 C 5.925781 -7.703125 5.984375 -7.582031 6.015625 -7.4375 C 6.066406 -7.300781 6.101562 -7.140625 6.125 -6.953125 L 6.125 -6.8125 C 6.125 -6.53125 6.0625 -6.253906 5.9375 -5.984375 C 5.8125 -5.660156 5.597656 -5.328125 5.296875 -4.984375 C 5.003906 -4.617188 4.5625 -4.253906 3.96875 -3.890625 C 3.40625 -3.523438 2.992188 -3.34375 2.734375 -3.34375 C 2.679688 -3.34375 2.585938 -3.378906 2.453125 -3.453125 C 2.328125 -3.515625 2.203125 -3.59375 2.078125 -3.6875 C 1.785156 -3.914062 1.597656 -3.984375 1.515625 -3.890625 C 1.441406 -3.816406 1.398438 -3.515625 1.390625 -2.984375 C 1.359375 -2.421875 1.394531 -2.03125 1.5 -1.8125 C 1.601562 -1.59375 1.789062 -1.476562 2.0625 -1.46875 C 2.332031 -1.4375 2.597656 -1.46875 2.859375 -1.5625 C 3.117188 -1.644531 3.429688 -1.8125 3.796875 -2.0625 C 4.015625 -2.21875 4.191406 -2.320312 4.328125 -2.375 C 4.453125 -2.4375 4.554688 -2.460938 4.640625 -2.453125 C 4.753906 -2.429688 4.945312 -2.300781 5.21875 -2.0625 C 5.507812 -1.832031 5.65625 -1.6875 5.65625 -1.625 C 5.65625 -1.539062 5.53125 -1.398438 5.28125 -1.203125 C 5.03125 -0.992188 4.769531 -0.828125 4.5 -0.703125 C 4.300781 -0.597656 4.117188 -0.523438 3.953125 -0.484375 C 3.773438 -0.441406 3.5625 -0.414062 3.3125 -0.40625 L 3.046875 -0.40625 C 2.867188 -0.40625 2.738281 -0.410156 2.65625 -0.421875 C 2.519531 -0.453125 2.320312 -0.53125 2.0625 -0.65625 C 1.664062 -0.863281 1.300781 -1.117188 0.96875 -1.421875 C 0.644531 -1.722656 0.40625 -2.03125 0.25 -2.34375 C 0.0820312 -2.6875 0 -3.113281 0 -3.625 C 0 -3.78125 0.00390625 -3.941406 0.015625 -4.109375 C 0.0976562 -4.828125 0.304688 -5.539062 0.640625 -6.25 C 1.046875 -7.0625 1.5625 -7.71875 2.1875 -8.21875 C 2.769531 -8.695312 3.328125 -8.945312 3.859375 -8.96875 L 3.921875 -8.96875 C 3.953125 -8.945312 3.988281 -8.9375 4.03125 -8.9375 Z M 2.75 -6.515625 C 2.53125 -6.222656 2.304688 -5.863281 2.078125 -5.4375 C 1.847656 -5.019531 1.734375 -4.753906 1.734375 -4.640625 C 1.734375 -4.523438 1.789062 -4.484375 1.90625 -4.515625 C 2.019531 -4.546875 2.25 -4.660156 2.59375 -4.859375 C 3.164062 -5.179688 3.648438 -5.585938 4.046875 -6.078125 C 4.441406 -6.554688 4.675781 -7.023438 4.75 -7.484375 C 4.78125 -7.640625 4.789062 -7.738281 4.78125 -7.78125 C 4.75 -7.800781 4.679688 -7.8125 4.578125 -7.8125 C 4.398438 -7.8125 4.109375 -7.671875 3.703125 -7.390625 C 3.296875 -7.097656 2.976562 -6.804688 2.75 -6.515625 Z M 2.75 -6.515625 "/></g></g><g transform="translate(114.967998, 21.029314)"><g><path d="M 0.5 -0.296875 C 0.394531 -0.367188 0.300781 -0.453125 0.21875 -0.546875 C 0.125 -0.640625 0.0625 -0.703125 0.03125 -0.734375 C 0.0195312 -0.773438 0.0078125 -0.925781 0 -1.1875 L 0 -1.40625 C 0 -1.613281 0.00390625 -1.835938 0.015625 -2.078125 C 0.0234375 -2.316406 0.0507812 -2.65625 0.09375 -3.09375 C 0.132812 -3.550781 0.175781 -4.023438 0.21875 -4.515625 C 0.289062 -5.285156 0.367188 -6.007812 0.453125 -6.6875 C 0.523438 -7.34375 0.578125 -7.710938 0.609375 -7.796875 C 0.640625 -7.898438 0.71875 -7.929688 0.84375 -7.890625 C 0.96875 -7.867188 1.140625 -7.785156 1.359375 -7.640625 C 1.597656 -7.472656 1.75 -7.335938 1.8125 -7.234375 C 1.863281 -7.128906 1.890625 -6.9375 1.890625 -6.65625 C 1.890625 -6.476562 1.914062 -6.363281 1.96875 -6.3125 C 2.019531 -6.257812 2.066406 -6.289062 2.109375 -6.40625 C 2.117188 -6.445312 2.1875 -6.554688 2.3125 -6.734375 C 2.4375 -6.910156 2.582031 -7.109375 2.75 -7.328125 C 3.070312 -7.742188 3.394531 -8.085938 3.71875 -8.359375 C 4.0625 -8.628906 4.351562 -8.789062 4.59375 -8.84375 L 4.734375 -8.84375 C 5.015625 -8.84375 5.351562 -8.703125 5.75 -8.421875 C 6.1875 -8.078125 6.441406 -7.742188 6.515625 -7.421875 C 6.523438 -7.328125 6.53125 -7.226562 6.53125 -7.125 C 6.53125 -6.851562 6.472656 -6.519531 6.359375 -6.125 C 6.203125 -5.5625 5.96875 -5.023438 5.65625 -4.515625 C 5.5625 -4.359375 5.472656 -4.21875 5.390625 -4.09375 C 5.304688 -3.976562 5.253906 -3.90625 5.234375 -3.875 C 5.160156 -3.800781 5.035156 -3.800781 4.859375 -3.875 C 4.679688 -3.957031 4.484375 -4.09375 4.265625 -4.28125 C 4.171875 -4.363281 4.035156 -4.488281 3.859375 -4.65625 C 3.910156 -4.757812 3.992188 -4.914062 4.109375 -5.125 C 4.296875 -5.425781 4.476562 -5.773438 4.65625 -6.171875 C 4.84375 -6.566406 4.957031 -6.84375 5 -7 C 5.039062 -7.175781 5.023438 -7.253906 4.953125 -7.234375 C 4.867188 -7.210938 4.722656 -7.097656 4.515625 -6.890625 C 3.984375 -6.335938 3.425781 -5.476562 2.84375 -4.3125 C 2.269531 -3.125 1.820312 -1.945312 1.5 -0.78125 C 1.382812 -0.320312 1.269531 -0.0664062 1.15625 -0.015625 C 1.132812 -0.00390625 1.109375 0 1.078125 0 C 0.953125 0 0.757812 -0.0976562 0.5 -0.296875 Z M 0.5 -0.296875 "/></g></g></g><g clip-path="url(#7884d65b38)"><g fill="#b87d11" fill-opacity="1"><g transform="translate(78.682221, 62.688653)"><g><path d="M 10.078125 -14.40625 C 10.703125 -13.96875 11.148438 -13.503906 11.421875 -13.015625 C 11.703125 -12.523438 11.863281 -11.910156 11.90625 -11.171875 L 11.90625 -10.828125 C 11.90625 -9.898438 11.691406 -9 11.265625 -8.125 C 10.785156 -7.144531 10.070312 -6.28125 9.125 -5.53125 C 8.613281 -5.113281 8.125 -4.769531 7.65625 -4.5 C 7.1875 -4.226562 6.648438 -3.988281 6.046875 -3.78125 C 5.710938 -3.664062 5.359375 -3.554688 4.984375 -3.453125 C 4.597656 -3.347656 4.171875 -3.242188 3.703125 -3.140625 C 3.566406 -3.109375 3.515625 -3.0625 3.546875 -3 C 3.585938 -2.945312 3.765625 -2.785156 4.078125 -2.515625 C 4.898438 -1.796875 5.691406 -1.398438 6.453125 -1.328125 C 7.191406 -1.242188 7.804688 -1.484375 8.296875 -2.046875 C 8.390625 -2.140625 8.488281 -2.269531 8.59375 -2.4375 C 8.695312 -2.601562 8.773438 -2.757812 8.828125 -2.90625 C 8.890625 -3.050781 8.945312 -3.164062 9 -3.25 C 9.0625 -3.351562 9.101562 -3.40625 9.125 -3.40625 C 9.175781 -3.40625 9.28125 -3.351562 9.4375 -3.25 C 9.601562 -3.164062 9.769531 -3.050781 9.9375 -2.90625 C 10.15625 -2.738281 10.269531 -2.578125 10.28125 -2.421875 C 10.28125 -2.273438 10.179688 -2.015625 9.984375 -1.640625 C 9.585938 -0.929688 9.066406 -0.5 8.421875 -0.34375 C 7.753906 -0.175781 6.96875 -0.289062 6.0625 -0.6875 C 5.820312 -0.789062 5.4375 -1.015625 4.90625 -1.359375 C 4.382812 -1.703125 3.984375 -1.992188 3.703125 -2.234375 C 3.585938 -2.359375 3.476562 -2.457031 3.375 -2.53125 C 3.28125 -2.59375 3.226562 -2.625 3.21875 -2.625 C 3.1875 -2.625 3.171875 -2.492188 3.171875 -2.234375 C 3.160156 -1.972656 3.15625 -1.664062 3.15625 -1.3125 C 3.15625 -0.375 3.21875 0.40625 3.34375 1.03125 C 3.488281 1.65625 3.710938 2.175781 4.015625 2.59375 C 4.160156 2.800781 4.21875 2.941406 4.1875 3.015625 C 4.1875 3.046875 4.160156 3.0625 4.109375 3.0625 C 4.054688 3.0625 3.992188 3.039062 3.921875 3 C 3.671875 2.882812 3.4375 2.726562 3.21875 2.53125 C 3 2.320312 2.8125 2.082031 2.65625 1.8125 C 2.34375 1.269531 2.125 0.703125 2 0.109375 C 1.875 -0.472656 1.8125 -1.25 1.8125 -2.21875 C 1.8125 -2.738281 1.796875 -3.097656 1.765625 -3.296875 C 1.753906 -3.503906 1.71875 -3.671875 1.65625 -3.796875 C 1.601562 -3.878906 1.570312 -3.953125 1.5625 -4.015625 C 1.550781 -4.078125 1.554688 -4.113281 1.578125 -4.125 C 1.722656 -4.175781 1.828125 -4.28125 1.890625 -4.4375 C 1.953125 -4.582031 2.023438 -4.894531 2.109375 -5.375 C 2.222656 -6.082031 2.40625 -6.890625 2.65625 -7.796875 C 2.882812 -8.703125 3.175781 -9.695312 3.53125 -10.78125 C 3.695312 -11.269531 3.832031 -11.695312 3.9375 -12.0625 C 4.039062 -12.425781 4.085938 -12.613281 4.078125 -12.625 C 4.046875 -12.65625 3.914062 -12.578125 3.6875 -12.390625 C 3.445312 -12.210938 3.195312 -11.992188 2.9375 -11.734375 C 2.757812 -11.566406 2.585938 -11.394531 2.421875 -11.21875 C 2.242188 -11.039062 2.097656 -10.878906 1.984375 -10.734375 C 1.828125 -10.523438 1.6875 -10.335938 1.5625 -10.171875 C 1.425781 -10.003906 1.351562 -9.90625 1.34375 -9.875 C 1.289062 -9.738281 1.054688 -9.785156 0.640625 -10.015625 C 0.210938 -10.265625 0 -10.472656 0 -10.640625 C 0 -10.753906 0.164062 -11.023438 0.5 -11.453125 C 0.832031 -11.878906 1.179688 -12.265625 1.546875 -12.609375 C 2.085938 -13.128906 2.679688 -13.578125 3.328125 -13.953125 C 3.984375 -14.335938 4.6875 -14.648438 5.4375 -14.890625 C 5.789062 -15.003906 6.082031 -15.082031 6.3125 -15.125 C 6.539062 -15.144531 6.90625 -15.15625 7.40625 -15.15625 L 7.484375 -15.15625 C 8.085938 -15.15625 8.546875 -15.109375 8.859375 -15.015625 C 9.203125 -14.929688 9.609375 -14.726562 10.078125 -14.40625 Z M 5.359375 -13.359375 C 5.148438 -13.265625 4.84375 -13.125 4.4375 -12.9375 C 4.5625 -12.863281 4.726562 -12.753906 4.9375 -12.609375 C 5.070312 -12.515625 5.191406 -12.414062 5.296875 -12.3125 C 5.398438 -12.21875 5.457031 -12.144531 5.46875 -12.09375 C 5.488281 -12.039062 5.476562 -11.921875 5.4375 -11.734375 C 5.382812 -11.523438 5.316406 -11.300781 5.234375 -11.0625 C 4.984375 -10.300781 4.71875 -9.453125 4.4375 -8.515625 C 4.164062 -7.578125 3.941406 -6.753906 3.765625 -6.046875 C 3.660156 -5.660156 3.582031 -5.332031 3.53125 -5.0625 C 3.457031 -4.789062 3.421875 -4.609375 3.421875 -4.515625 C 3.421875 -4.398438 3.523438 -4.363281 3.734375 -4.40625 C 3.941406 -4.445312 4.332031 -4.582031 4.90625 -4.8125 C 6.332031 -5.375 7.535156 -6.144531 8.515625 -7.125 C 9.503906 -8.113281 10.144531 -9.191406 10.4375 -10.359375 C 10.570312 -10.847656 10.617188 -11.394531 10.578125 -12 C 10.535156 -12.601562 10.429688 -13.078125 10.265625 -13.421875 C 10.148438 -13.671875 10.0625 -13.828125 10 -13.890625 C 9.914062 -13.953125 9.78125 -14.007812 9.59375 -14.0625 C 9.457031 -14.101562 9.3125 -14.128906 9.15625 -14.140625 C 9 -14.171875 8.835938 -14.1875 8.671875 -14.1875 C 8.179688 -14.1875 7.648438 -14.113281 7.078125 -13.96875 C 6.492188 -13.820312 5.921875 -13.617188 5.359375 -13.359375 Z M 5.359375 -13.359375 "/></g></g><g transform="translate(90.648367, 62.688653)"><g><path d="M 4.125 -8.9375 C 4.351562 -8.882812 4.664062 -8.726562 5.0625 -8.46875 C 5.457031 -8.226562 5.71875 -8.003906 5.84375 -7.796875 C 5.925781 -7.703125 5.984375 -7.582031 6.015625 -7.4375 C 6.066406 -7.300781 6.101562 -7.140625 6.125 -6.953125 L 6.125 -6.8125 C 6.125 -6.53125 6.0625 -6.253906 5.9375 -5.984375 C 5.8125 -5.660156 5.597656 -5.328125 5.296875 -4.984375 C 5.003906 -4.617188 4.5625 -4.253906 3.96875 -3.890625 C 3.40625 -3.523438 2.992188 -3.34375 2.734375 -3.34375 C 2.679688 -3.34375 2.585938 -3.378906 2.453125 -3.453125 C 2.328125 -3.515625 2.203125 -3.59375 2.078125 -3.6875 C 1.785156 -3.914062 1.597656 -3.984375 1.515625 -3.890625 C 1.441406 -3.816406 1.398438 -3.515625 1.390625 -2.984375 C 1.359375 -2.421875 1.394531 -2.03125 1.5 -1.8125 C 1.601562 -1.59375 1.789062 -1.476562 2.0625 -1.46875 C 2.332031 -1.4375 2.597656 -1.46875 2.859375 -1.5625 C 3.117188 -1.644531 3.429688 -1.8125 3.796875 -2.0625 C 4.015625 -2.21875 4.191406 -2.320312 4.328125 -2.375 C 4.453125 -2.4375 4.554688 -2.460938 4.640625 -2.453125 C 4.753906 -2.429688 4.945312 -2.300781 5.21875 -2.0625 C 5.507812 -1.832031 5.65625 -1.6875 5.65625 -1.625 C 5.65625 -1.539062 5.53125 -1.398438 5.28125 -1.203125 C 5.03125 -0.992188 4.769531 -0.828125 4.5 -0.703125 C 4.300781 -0.597656 4.117188 -0.523438 3.953125 -0.484375 C 3.773438 -0.441406 3.5625 -0.414062 3.3125 -0.40625 L 3.046875 -0.40625 C 2.867188 -0.40625 2.738281 -0.410156 2.65625 -0.421875 C 2.519531 -0.453125 2.320312 -0.53125 2.0625 -0.65625 C 1.664062 -0.863281 1.300781 -1.117188 0.96875 -1.421875 C 0.644531 -1.722656 0.40625 -2.03125 0.25 -2.34375 C 0.0820312 -2.6875 0 -3.113281 0 -3.625 C 0 -3.78125 0.00390625 -3.941406 0.015625 -4.109375 C 0.0976562 -4.828125 0.304688 -5.539062 0.640625 -6.25 C 1.046875 -7.0625 1.5625 -7.71875 2.1875 -8.21875 C 2.769531 -8.695312 3.328125 -8.945312 3.859375 -8.96875 L 3.921875 -8.96875 C 3.953125 -8.945312 3.988281 -8.9375 4.03125 -8.9375 Z M 2.75 -6.515625 C 2.53125 -6.222656 2.304688 -5.863281 2.078125 -5.4375 C 1.847656 -5.019531 1.734375 -4.753906 1.734375 -4.640625 C 1.734375 -4.523438 1.789062 -4.484375 1.90625 -4.515625 C 2.019531 -4.546875 2.25 -4.660156 2.59375 -4.859375 C 3.164062 -5.179688 3.648438 -5.585938 4.046875 -6.078125 C 4.441406 -6.554688 4.675781 -7.023438 4.75 -7.484375 C 4.78125 -7.640625 4.789062 -7.738281 4.78125 -7.78125 C 4.75 -7.800781 4.679688 -7.8125 4.578125 -7.8125 C 4.398438 -7.8125 4.109375 -7.671875 3.703125 -7.390625 C 3.296875 -7.097656 2.976562 -6.804688 2.75 -6.515625 Z M 2.75 -6.515625 "/></g></g><g transform="translate(97.021216, 62.688653)"><g><path d="M 1.828125 -0.5 C 1.722656 -0.550781 1.578125 -0.648438 1.390625 -0.796875 C 1.203125 -0.941406 1.03125 -1.09375 0.875 -1.25 C 0.5 -1.59375 0.253906 -1.941406 0.140625 -2.296875 C 0.0546875 -2.566406 0.015625 -2.910156 0.015625 -3.328125 C 0.015625 -3.472656 0.0195312 -3.628906 0.03125 -3.796875 C 0.0625 -4.304688 0.140625 -4.796875 0.265625 -5.265625 C 0.410156 -5.734375 0.613281 -6.210938 0.875 -6.703125 C 1.320312 -7.578125 1.820312 -8.238281 2.375 -8.6875 C 2.832031 -9.0625 3.269531 -9.25 3.6875 -9.25 C 3.769531 -9.25 3.851562 -9.242188 3.9375 -9.234375 C 4.15625 -9.191406 4.460938 -9.03125 4.859375 -8.75 C 5.234375 -8.476562 5.484375 -8.234375 5.609375 -8.015625 C 5.671875 -7.910156 5.726562 -7.769531 5.78125 -7.59375 C 5.832031 -7.4375 5.867188 -7.289062 5.890625 -7.15625 C 5.910156 -6.863281 5.910156 -6.535156 5.890625 -6.171875 C 5.847656 -5.804688 5.796875 -5.570312 5.734375 -5.46875 C 5.660156 -5.363281 5.539062 -5.347656 5.375 -5.421875 C 5.207031 -5.484375 5.007812 -5.617188 4.78125 -5.828125 L 4.359375 -6.171875 C 4.390625 -6.304688 4.429688 -6.492188 4.484375 -6.734375 C 4.546875 -7.097656 4.578125 -7.40625 4.578125 -7.65625 C 4.578125 -7.90625 4.546875 -8.050781 4.484375 -8.09375 C 4.390625 -8.144531 4.179688 -8.054688 3.859375 -7.828125 C 3.546875 -7.597656 3.265625 -7.332031 3.015625 -7.03125 C 2.742188 -6.695312 2.46875 -6.238281 2.1875 -5.65625 C 1.882812 -5.082031 1.675781 -4.570312 1.5625 -4.125 C 1.476562 -3.800781 1.425781 -3.363281 1.40625 -2.8125 C 1.375 -2.25 1.394531 -1.851562 1.46875 -1.625 C 1.488281 -1.53125 1.523438 -1.460938 1.578125 -1.421875 C 1.617188 -1.378906 1.691406 -1.359375 1.796875 -1.359375 C 2.179688 -1.359375 2.660156 -1.597656 3.234375 -2.078125 C 3.816406 -2.566406 4.335938 -3.160156 4.796875 -3.859375 C 4.972656 -4.128906 5.128906 -4.335938 5.265625 -4.484375 C 5.378906 -4.628906 5.460938 -4.703125 5.515625 -4.703125 C 5.660156 -4.703125 5.875 -4.582031 6.15625 -4.34375 C 6.445312 -4.113281 6.59375 -3.9375 6.59375 -3.8125 C 6.59375 -3.644531 6.410156 -3.296875 6.046875 -2.765625 C 5.679688 -2.234375 5.320312 -1.800781 4.96875 -1.46875 C 4.40625 -0.914062 3.863281 -0.5625 3.34375 -0.40625 C 3.144531 -0.34375 2.929688 -0.3125 2.703125 -0.3125 C 2.421875 -0.3125 2.128906 -0.375 1.828125 -0.5 Z M 1.828125 -0.5 "/></g></g><g transform="translate(103.82282, 62.688653)"><g><path d="M 4.65625 -7.59375 C 5.007812 -7.320312 5.253906 -7.03125 5.390625 -6.71875 C 5.523438 -6.425781 5.59375 -6.03125 5.59375 -5.53125 C 5.59375 -5.0625 5.539062 -4.609375 5.4375 -4.171875 C 5.320312 -3.722656 5.144531 -3.253906 4.90625 -2.765625 C 4.507812 -1.929688 4.054688 -1.304688 3.546875 -0.890625 C 3.140625 -0.554688 2.742188 -0.390625 2.359375 -0.390625 C 2.265625 -0.390625 2.171875 -0.398438 2.078125 -0.421875 C 1.679688 -0.515625 1.28125 -0.738281 0.875 -1.09375 C 0.488281 -1.457031 0.234375 -1.828125 0.109375 -2.203125 C 0.0351562 -2.503906 0 -2.863281 0 -3.28125 C 0 -3.601562 0.0234375 -3.953125 0.078125 -4.328125 C 0.179688 -5.234375 0.390625 -6.046875 0.703125 -6.765625 C 0.773438 -6.953125 0.835938 -7.070312 0.890625 -7.125 C 0.941406 -7.175781 1.015625 -7.191406 1.109375 -7.171875 C 1.191406 -7.140625 1.269531 -7.148438 1.34375 -7.203125 C 1.4375 -7.253906 1.566406 -7.367188 1.734375 -7.546875 C 1.960938 -7.785156 2.191406 -7.96875 2.421875 -8.09375 C 2.648438 -8.195312 2.898438 -8.25 3.171875 -8.25 C 3.421875 -8.25 3.65625 -8.203125 3.875 -8.109375 C 4.09375 -8.015625 4.351562 -7.84375 4.65625 -7.59375 Z M 2.515625 -5.75 C 2.421875 -5.5625 2.328125 -5.425781 2.234375 -5.34375 C 2.160156 -5.25 2.082031 -5.1875 2 -5.15625 C 1.882812 -5.132812 1.796875 -5.046875 1.734375 -4.890625 C 1.671875 -4.734375 1.582031 -4.390625 1.46875 -3.859375 C 1.394531 -3.554688 1.359375 -3.117188 1.359375 -2.546875 C 1.378906 -1.972656 1.421875 -1.65625 1.484375 -1.59375 C 1.554688 -1.519531 1.695312 -1.539062 1.90625 -1.65625 C 2.113281 -1.769531 2.347656 -1.960938 2.609375 -2.234375 C 2.878906 -2.523438 3.148438 -2.921875 3.421875 -3.421875 C 3.703125 -3.941406 3.90625 -4.4375 4.03125 -4.90625 C 4.132812 -5.269531 4.203125 -5.726562 4.234375 -6.28125 C 4.253906 -6.8125 4.21875 -7.101562 4.125 -7.15625 C 4.113281 -7.164062 4.097656 -7.171875 4.078125 -7.171875 L 4 -7.171875 C 3.800781 -7.160156 3.546875 -7.007812 3.234375 -6.71875 C 2.929688 -6.425781 2.691406 -6.101562 2.515625 -5.75 Z M 2.515625 -5.75 "/></g></g><g transform="translate(109.805892, 62.688653)"><g><path d="M 0.5 -0.296875 C 0.394531 -0.367188 0.300781 -0.453125 0.21875 -0.546875 C 0.125 -0.640625 0.0625 -0.703125 0.03125 -0.734375 C 0.0195312 -0.773438 0.0078125 -0.925781 0 -1.1875 L 0 -1.40625 C 0 -1.613281 0.00390625 -1.835938 0.015625 -2.078125 C 0.0234375 -2.316406 0.0507812 -2.65625 0.09375 -3.09375 C 0.132812 -3.550781 0.175781 -4.023438 0.21875 -4.515625 C 0.289062 -5.285156 0.367188 -6.007812 0.453125 -6.6875 C 0.523438 -7.34375 0.578125 -7.710938 0.609375 -7.796875 C 0.640625 -7.898438 0.71875 -7.929688 0.84375 -7.890625 C 0.96875 -7.867188 1.140625 -7.785156 1.359375 -7.640625 C 1.597656 -7.472656 1.75 -7.335938 1.8125 -7.234375 C 1.863281 -7.128906 1.890625 -6.9375 1.890625 -6.65625 C 1.890625 -6.476562 1.914062 -6.363281 1.96875 -6.3125 C 2.019531 -6.257812 2.066406 -6.289062 2.109375 -6.40625 C 2.117188 -6.445312 2.1875 -6.554688 2.3125 -6.734375 C 2.4375 -6.910156 2.582031 -7.109375 2.75 -7.328125 C 3.070312 -7.742188 3.394531 -8.085938 3.71875 -8.359375 C 4.0625 -8.628906 4.351562 -8.789062 4.59375 -8.84375 L 4.734375 -8.84375 C 5.015625 -8.84375 5.351562 -8.703125 5.75 -8.421875 C 6.1875 -8.078125 6.441406 -7.742188 6.515625 -7.421875 C 6.523438 -7.328125 6.53125 -7.226562 6.53125 -7.125 C 6.53125 -6.851562 6.472656 -6.519531 6.359375 -6.125 C 6.203125 -5.5625 5.96875 -5.023438 5.65625 -4.515625 C 5.5625 -4.359375 5.472656 -4.21875 5.390625 -4.09375 C 5.304688 -3.976562 5.253906 -3.90625 5.234375 -3.875 C 5.160156 -3.800781 5.035156 -3.800781 4.859375 -3.875 C 4.679688 -3.957031 4.484375 -4.09375 4.265625 -4.28125 C 4.171875 -4.363281 4.035156 -4.488281 3.859375 -4.65625 C 3.910156 -4.757812 3.992188 -4.914062 4.109375 -5.125 C 4.296875 -5.425781 4.476562 -5.773438 4.65625 -6.171875 C 4.84375 -6.566406 4.957031 -6.84375 5 -7 C 5.039062 -7.175781 5.023438 -7.253906 4.953125 -7.234375 C 4.867188 -7.210938 4.722656 -7.097656 4.515625 -6.890625 C 3.984375 -6.335938 3.425781 -5.476562 2.84375 -4.3125 C 2.269531 -3.125 1.820312 -1.945312 1.5 -0.78125 C 1.382812 -0.320312 1.269531 -0.0664062 1.15625 -0.015625 C 1.132812 -0.00390625 1.109375 0 1.078125 0 C 0.953125 0 0.757812 -0.0976562 0.5 -0.296875 Z M 0.5 -0.296875 "/></g></g><g transform="translate(116.588007, 62.688653)"><g><path d="M 7.515625 -14.890625 C 7.515625 -14.835938 7.472656 -14.546875 7.390625 -14.015625 C 7.296875 -13.484375 7.179688 -12.867188 7.046875 -12.171875 C 6.972656 -11.742188 6.882812 -11.21875 6.78125 -10.59375 C 6.675781 -9.988281 6.566406 -9.320312 6.453125 -8.59375 C 6.242188 -7.257812 6.035156 -5.835938 5.828125 -4.328125 C 5.609375 -2.804688 5.425781 -1.453125 5.28125 -0.265625 C 5.21875 0.242188 5.164062 0.679688 5.125 1.046875 C 5.070312 1.429688 5.046875 1.628906 5.046875 1.640625 C 5.054688 1.671875 5.023438 1.6875 4.953125 1.6875 C 4.921875 1.6875 4.875 1.679688 4.8125 1.671875 C 4.65625 1.640625 4.492188 1.5625 4.328125 1.4375 C 3.972656 1.21875 3.773438 1.046875 3.734375 0.921875 C 3.703125 0.785156 3.71875 0.378906 3.78125 -0.296875 C 3.820312 -0.617188 3.851562 -0.90625 3.875 -1.15625 C 3.90625 -1.394531 3.921875 -1.523438 3.921875 -1.546875 C 3.898438 -1.609375 3.847656 -1.617188 3.765625 -1.578125 C 3.660156 -1.535156 3.566406 -1.472656 3.484375 -1.390625 C 3.242188 -1.078125 2.914062 -0.875 2.5 -0.78125 C 2.09375 -0.6875 1.726562 -0.738281 1.40625 -0.9375 C 0.90625 -1.21875 0.570312 -1.488281 0.40625 -1.75 C 0.238281 -2.007812 0.140625 -2.390625 0.109375 -2.890625 C 0.0976562 -2.992188 0.09375 -3.085938 0.09375 -3.171875 C 0.09375 -3.628906 0.160156 -4.0625 0.296875 -4.46875 C 0.460938 -4.96875 0.710938 -5.425781 1.046875 -5.84375 C 1.285156 -6.113281 1.488281 -6.3125 1.65625 -6.4375 C 1.820312 -6.5625 2.007812 -6.632812 2.21875 -6.65625 C 2.519531 -6.695312 2.757812 -6.695312 2.9375 -6.65625 C 3.113281 -6.625 3.363281 -6.507812 3.6875 -6.3125 C 3.863281 -6.207031 4.023438 -6.117188 4.171875 -6.046875 C 4.328125 -5.960938 4.410156 -5.921875 4.421875 -5.921875 C 4.460938 -5.929688 4.488281 -5.960938 4.5 -6.015625 C 4.53125 -6.066406 4.570312 -6.296875 4.625 -6.703125 C 4.65625 -6.878906 4.6875 -7.097656 4.71875 -7.359375 C 4.757812 -7.617188 4.804688 -7.929688 4.859375 -8.296875 C 4.921875 -8.742188 4.992188 -9.242188 5.078125 -9.796875 C 5.171875 -10.359375 5.269531 -10.925781 5.375 -11.5 C 5.5625 -12.550781 5.742188 -13.503906 5.921875 -14.359375 C 6.085938 -15.210938 6.195312 -15.660156 6.25 -15.703125 L 6.28125 -15.703125 C 6.28125 -15.710938 6.285156 -15.71875 6.296875 -15.71875 L 6.359375 -15.71875 C 6.515625 -15.71875 6.734375 -15.625 7.015625 -15.4375 C 7.335938 -15.207031 7.503906 -15.023438 7.515625 -14.890625 Z M 1.96875 -4.25 C 1.738281 -3.820312 1.585938 -3.328125 1.515625 -2.765625 C 1.441406 -2.203125 1.488281 -1.929688 1.65625 -1.953125 C 1.695312 -1.953125 1.78125 -2.007812 1.90625 -2.125 C 2.050781 -2.238281 2.195312 -2.375 2.34375 -2.53125 C 2.726562 -2.945312 3.070312 -3.390625 3.375 -3.859375 C 3.664062 -4.328125 3.8125 -4.644531 3.8125 -4.8125 C 3.800781 -5.019531 3.75 -5.210938 3.65625 -5.390625 C 3.570312 -5.585938 3.488281 -5.679688 3.40625 -5.671875 C 3.21875 -5.671875 2.972656 -5.519531 2.671875 -5.21875 C 2.367188 -4.925781 2.132812 -4.601562 1.96875 -4.25 Z M 1.96875 -4.25 "/></g></g><g transform="translate(123.370122, 62.688653)"><g><path d="M 4.125 -8.9375 C 4.351562 -8.882812 4.664062 -8.726562 5.0625 -8.46875 C 5.457031 -8.226562 5.71875 -8.003906 5.84375 -7.796875 C 5.925781 -7.703125 5.984375 -7.582031 6.015625 -7.4375 C 6.066406 -7.300781 6.101562 -7.140625 6.125 -6.953125 L 6.125 -6.8125 C 6.125 -6.53125 6.0625 -6.253906 5.9375 -5.984375 C 5.8125 -5.660156 5.597656 -5.328125 5.296875 -4.984375 C 5.003906 -4.617188 4.5625 -4.253906 3.96875 -3.890625 C 3.40625 -3.523438 2.992188 -3.34375 2.734375 -3.34375 C 2.679688 -3.34375 2.585938 -3.378906 2.453125 -3.453125 C 2.328125 -3.515625 2.203125 -3.59375 2.078125 -3.6875 C 1.785156 -3.914062 1.597656 -3.984375 1.515625 -3.890625 C 1.441406 -3.816406 1.398438 -3.515625 1.390625 -2.984375 C 1.359375 -2.421875 1.394531 -2.03125 1.5 -1.8125 C 1.601562 -1.59375 1.789062 -1.476562 2.0625 -1.46875 C 2.332031 -1.4375 2.597656 -1.46875 2.859375 -1.5625 C 3.117188 -1.644531 3.429688 -1.8125 3.796875 -2.0625 C 4.015625 -2.21875 4.191406 -2.320312 4.328125 -2.375 C 4.453125 -2.4375 4.554688 -2.460938 4.640625 -2.453125 C 4.753906 -2.429688 4.945312 -2.300781 5.21875 -2.0625 C 5.507812 -1.832031 5.65625 -1.6875 5.65625 -1.625 C 5.65625 -1.539062 5.53125 -1.398438 5.28125 -1.203125 C 5.03125 -0.992188 4.769531 -0.828125 4.5 -0.703125 C 4.300781 -0.597656 4.117188 -0.523438 3.953125 -0.484375 C 3.773438 -0.441406 3.5625 -0.414062 3.3125 -0.40625 L 3.046875 -0.40625 C 2.867188 -0.40625 2.738281 -0.410156 2.65625 -0.421875 C 2.519531 -0.453125 2.320312 -0.53125 2.0625 -0.65625 C 1.664062 -0.863281 1.300781 -1.117188 0.96875 -1.421875 C 0.644531 -1.722656 0.40625 -2.03125 0.25 -2.34375 C 0.0820312 -2.6875 0 -3.113281 0 -3.625 C 0 -3.78125 0.00390625 -3.941406 0.015625 -4.109375 C 0.0976562 -4.828125 0.304688 -5.539062 0.640625 -6.25 C 1.046875 -7.0625 1.5625 -7.71875 2.1875 -8.21875 C 2.769531 -8.695312 3.328125 -8.945312 3.859375 -8.96875 L 3.921875 -8.96875 C 3.953125 -8.945312 3.988281 -8.9375 4.03125 -8.9375 Z M 2.75 -6.515625 C 2.53125 -6.222656 2.304688 -5.863281 2.078125 -5.4375 C 1.847656 -5.019531 1.734375 -4.753906 1.734375 -4.640625 C 1.734375 -4.523438 1.789062 -4.484375 1.90625 -4.515625 C 2.019531 -4.546875 2.25 -4.660156 2.59375 -4.859375 C 3.164062 -5.179688 3.648438 -5.585938 4.046875 -6.078125 C 4.441406 -6.554688 4.675781 -7.023438 4.75 -7.484375 C 4.78125 -7.640625 4.789062 -7.738281 4.78125 -7.78125 C 4.75 -7.800781 4.679688 -7.8125 4.578125 -7.8125 C 4.398438 -7.8125 4.109375 -7.671875 3.703125 -7.390625 C 3.296875 -7.097656 2.976562 -6.804688 2.75 -6.515625 Z M 2.75 -6.515625 "/></g></g><g transform="translate(129.742972, 62.688653)"><g><path d="M 7.515625 -14.890625 C 7.515625 -14.835938 7.472656 -14.546875 7.390625 -14.015625 C 7.296875 -13.484375 7.179688 -12.867188 7.046875 -12.171875 C 6.972656 -11.742188 6.882812 -11.21875 6.78125 -10.59375 C 6.675781 -9.988281 6.566406 -9.320312 6.453125 -8.59375 C 6.242188 -7.257812 6.035156 -5.835938 5.828125 -4.328125 C 5.609375 -2.804688 5.425781 -1.453125 5.28125 -0.265625 C 5.21875 0.242188 5.164062 0.679688 5.125 1.046875 C 5.070312 1.429688 5.046875 1.628906 5.046875 1.640625 C 5.054688 1.671875 5.023438 1.6875 4.953125 1.6875 C 4.921875 1.6875 4.875 1.679688 4.8125 1.671875 C 4.65625 1.640625 4.492188 1.5625 4.328125 1.4375 C 3.972656 1.21875 3.773438 1.046875 3.734375 0.921875 C 3.703125 0.785156 3.71875 0.378906 3.78125 -0.296875 C 3.820312 -0.617188 3.851562 -0.90625 3.875 -1.15625 C 3.90625 -1.394531 3.921875 -1.523438 3.921875 -1.546875 C 3.898438 -1.609375 3.847656 -1.617188 3.765625 -1.578125 C 3.660156 -1.535156 3.566406 -1.472656 3.484375 -1.390625 C 3.242188 -1.078125 2.914062 -0.875 2.5 -0.78125 C 2.09375 -0.6875 1.726562 -0.738281 1.40625 -0.9375 C 0.90625 -1.21875 0.570312 -1.488281 0.40625 -1.75 C 0.238281 -2.007812 0.140625 -2.390625 0.109375 -2.890625 C 0.0976562 -2.992188 0.09375 -3.085938 0.09375 -3.171875 C 0.09375 -3.628906 0.160156 -4.0625 0.296875 -4.46875 C 0.460938 -4.96875 0.710938 -5.425781 1.046875 -5.84375 C 1.285156 -6.113281 1.488281 -6.3125 1.65625 -6.4375 C 1.820312 -6.5625 2.007812 -6.632812 2.21875 -6.65625 C 2.519531 -6.695312 2.757812 -6.695312 2.9375 -6.65625 C 3.113281 -6.625 3.363281 -6.507812 3.6875 -6.3125 C 3.863281 -6.207031 4.023438 -6.117188 4.171875 -6.046875 C 4.328125 -5.960938 4.410156 -5.921875 4.421875 -5.921875 C 4.460938 -5.929688 4.488281 -5.960938 4.5 -6.015625 C 4.53125 -6.066406 4.570312 -6.296875 4.625 -6.703125 C 4.65625 -6.878906 4.6875 -7.097656 4.71875 -7.359375 C 4.757812 -7.617188 4.804688 -7.929688 4.859375 -8.296875 C 4.921875 -8.742188 4.992188 -9.242188 5.078125 -9.796875 C 5.171875 -10.359375 5.269531 -10.925781 5.375 -11.5 C 5.5625 -12.550781 5.742188 -13.503906 5.921875 -14.359375 C 6.085938 -15.210938 6.195312 -15.660156 6.25 -15.703125 L 6.28125 -15.703125 C 6.28125 -15.710938 6.285156 -15.71875 6.296875 -15.71875 L 6.359375 -15.71875 C 6.515625 -15.71875 6.734375 -15.625 7.015625 -15.4375 C 7.335938 -15.207031 7.503906 -15.023438 7.515625 -14.890625 Z M 1.96875 -4.25 C 1.738281 -3.820312 1.585938 -3.328125 1.515625 -2.765625 C 1.441406 -2.203125 1.488281 -1.929688 1.65625 -1.953125 C 1.695312 -1.953125 1.78125 -2.007812 1.90625 -2.125 C 2.050781 -2.238281 2.195312 -2.375 2.34375 -2.53125 C 2.726562 -2.945312 3.070312 -3.390625 3.375 -3.859375 C 3.664062 -4.328125 3.8125 -4.644531 3.8125 -4.8125 C 3.800781 -5.019531 3.75 -5.210938 3.65625 -5.390625 C 3.570312 -5.585938 3.488281 -5.679688 3.40625 -5.671875 C 3.21875 -5.671875 2.972656 -5.519531 2.671875 -5.21875 C 2.367188 -4.925781 2.132812 -4.601562 1.96875 -4.25 Z M 1.96875 -4.25 "/></g></g></g></g></g></g></svg>