<svg xmlns="http://www.w3.org/2000/svg" xmlns:xlink="http://www.w3.org/1999/xlink" width="100" zoomAndPan="magnify" viewBox="0 0 75 74.999997" height="100" preserveAspectRatio="xMidYMid meet" version="1.0"><path fill="#b87d11" d="M 30 -0.0078125 C 13.484375 -0.0078125 -0.0078125 13.484375 -0.0078125 30 C -0.0078125 46.515625 13.484375 60.003906 30 60.003906 C 36.570312 60.003906 42.640625 57.835938 47.59375 54.222656 L 66.925781 73.554688 C 67.140625 73.78125 67.378906 73.980469 67.632812 74.160156 C 67.890625 74.335938 68.160156 74.488281 68.449219 74.613281 C 68.734375 74.734375 69.03125 74.832031 69.335938 74.894531 C 69.640625 74.960938 69.949219 74.992188 70.261719 74.996094 C 70.574219 75 70.882812 74.972656 71.1875 74.914062 C 71.496094 74.855469 71.792969 74.765625 72.082031 74.648438 C 72.371094 74.53125 72.644531 74.386719 72.902344 74.214844 C 73.164062 74.039062 73.402344 73.84375 73.625 73.625 C 73.84375 73.402344 74.039062 73.164062 74.214844 72.902344 C 74.386719 72.644531 74.53125 72.371094 74.648438 72.082031 C 74.765625 71.792969 74.855469 71.496094 74.914062 71.1875 C 74.972656 70.882812 75 70.574219 74.996094 70.261719 C 74.992188 69.949219 74.960938 69.640625 74.894531 69.335938 C 74.832031 69.03125 74.734375 68.734375 74.613281 68.449219 C 74.488281 68.160156 74.335938 67.890625 74.160156 67.632812 C 73.980469 67.378906 73.78125 67.140625 73.554688 66.925781 L 54.222656 47.59375 C 57.835938 42.640625 60.003906 36.570312 60.003906 30 C 60.003906 13.484375 46.515625 -0.0078125 30 -0.0078125 Z M 30 9.371094 C 41.445312 9.371094 50.628906 18.550781 50.628906 30 C 50.628906 41.445312 41.445312 50.628906 30 50.628906 C 18.550781 50.628906 9.371094 41.445312 9.371094 30 C 9.371094 18.550781 18.550781 9.371094 30 9.371094 Z M 30 9.371094 " fill-opacity="1" fill-rule="nonzero"/></svg>